<?xml version="1.0" encoding="UTF-8"?>
<!-- Generator: visioncortex VTracer 0.6.4 -->
<svg version="1.1" xmlns="http://www.w3.org/2000/svg" width="1024" height="1024">
<path d="M0 0 C337.92 0 675.84 0 1024 0 C1024 337.92 1024 675.84 1024 1024 C686.08 1024 348.16 1024 0 1024 C0 686.08 0 348.16 0 0 Z " fill="#C3E15E" transform="translate(0,0)"/>
<path d="M0 0 C337.92 0 675.84 0 1024 0 C1024 337.92 1024 675.84 1024 1024 C686.08 1024 348.16 1024 0 1024 C0 686.08 0 348.16 0 0 Z M445.75 93 C443.95 93.33 442.16 93.67 440.36 94 C439.49 94.17 438.61 94.33 437.71 94.5 C434.84 95.03 431.95 95.5 429.07 95.96 C423.04 96.95 417.12 98.25 411.19 99.69 C410.12 99.95 409.05 100.2 407.95 100.47 C400.43 102.32 392.98 104.38 385.56 106.62 C384.65 106.9 383.73 107.18 382.79 107.46 C377.52 109.1 372.4 110.98 367.29 113.07 C364.19 114.33 361.03 115.44 357.88 116.56 C339.22 123.44 321.47 132.57 304 142 C304 142.66 304 143.32 304 144 C303.27 144.11 302.54 144.22 301.79 144.33 C298.83 145.04 296.87 146.06 294.3 147.66 C293.43 148.21 292.56 148.75 291.66 149.31 C290.78 149.86 289.9 150.42 289 151 C288.2 151.51 287.39 152.02 286.56 152.55 C273.63 160.86 261.33 169.87 249.21 179.32 C247.14 180.89 245.04 182.37 242.9 183.84 C241.94 184.55 240.99 185.27 240 186 C240 186.66 240 187.32 240 188 C239.44 188.24 238.88 188.49 238.3 188.74 C231.26 192.59 225.53 199.39 219.95 205.09 C217.32 207.67 214.51 210.02 211.66 212.36 C209.89 214.11 208.98 215.72 208 218 C207.34 218 206.68 218 206 218 C204.64 219.64 203.31 221.32 202 223 C200.33 224.67 198.67 226.33 197 228 C195.38 229.72 193.78 231.45 192.19 233.19 C191 234.48 191 234.48 189.79 235.79 C187.79 237.78 187.79 237.78 188 240 C187.34 240 186.68 240 186 240 C183.96 242.17 183.96 242.17 181.88 244.88 C181.15 245.78 180.43 246.68 179.68 247.62 C177.81 249.79 177.81 249.79 178 252 C177.34 252 176.68 252 176 252 C174.37 254.07 172.86 256.14 171.38 258.31 C170.47 259.62 169.56 260.92 168.64 262.22 C167.97 263.19 167.97 263.19 167.28 264.18 C165.59 266.58 163.83 268.91 162.06 271.25 C157.01 278.15 152.7 285.52 148.3 292.85 C147.01 294.99 145.68 297.11 144.34 299.23 C142.53 302.13 140.81 305.05 139.19 308.06 C138.69 308.99 138.19 309.91 137.68 310.86 C137.13 311.9 136.57 312.93 136 314 C135.32 315.26 134.63 316.53 133.95 317.79 C133.23 319.11 132.52 320.43 131.81 321.75 C131.48 322.36 131.15 322.98 130.8 323.61 C128.63 327.66 126.77 331.76 125 336 C124.45 337.24 123.9 338.49 123.35 339.73 C120.07 347.13 116.94 354.53 114.14 362.13 C113 365 113 365 111.48 367.93 C109.88 371.25 108.96 374.45 108 378 C107.58 379.33 107.14 380.67 106.7 382 C101.19 398.79 96.69 415.9 93.64 433.32 C93.22 435.75 92.76 438.17 92.26 440.58 C90.51 449.18 89.35 457.78 88.38 466.5 C88.25 467.59 88.13 468.68 88 469.81 C86.42 484.48 85.79 499.07 85.81 513.81 C85.81 514.61 85.81 515.41 85.81 516.24 C85.86 538.11 87.38 559.51 91.44 581.02 C92.01 584.03 92.55 587.05 93.09 590.07 C96.48 608.41 101.34 626.42 107.35 644.09 C108.03 646.09 108.67 648.11 109.31 650.12 C113.11 661.54 118.03 672.61 122.92 683.59 C123.45 684.79 123.98 685.98 124.53 687.21 C125.08 688.45 125.63 689.7 126.19 690.94 C126.75 692.21 127.32 693.48 127.88 694.74 C129.25 697.83 130.63 700.91 132 704 C132.66 704 133.32 704 134 704 C134.09 704.69 134.18 705.38 134.27 706.09 C135.16 709.65 136.82 712.51 138.69 715.62 C139.35 716.75 140.02 717.88 140.7 719.04 C141.25 719.97 141.25 719.97 141.81 720.91 C143.16 723.28 144.43 725.69 145.7 728.1 C149.41 734.93 153.72 741.32 158.06 747.75 C158.86 748.94 159.66 750.13 160.46 751.32 C162.62 754.56 164.81 757.78 167 761 C167.53 761.79 168.06 762.57 168.6 763.38 C169.68 764.96 170.83 766.49 172 768 C172.66 768 173.32 768 174 768 C174.21 768.68 174.41 769.36 174.62 770.05 C176.47 774.01 179.11 776.89 182 780.12 C183.08 781.36 184.17 782.59 185.25 783.82 C185.73 784.36 186.21 784.9 186.7 785.45 C188 787 188 787 190 790 C190.66 790 191.32 790 192 790 C192.24 790.56 192.48 791.12 192.73 791.69 C197.91 801.11 208.02 809.14 215.5 816.69 C216.37 817.57 217.23 818.44 218.12 819.35 C223.34 824.57 228.73 829.39 234.51 833.98 C236.97 835.98 239.34 838.06 241.69 840.19 C248.09 846.74 248.09 846.74 256 850 C256 850.66 256 851.32 256 852 C258.26 853.8 260.51 855.47 262.88 857.12 C263.53 857.59 264.18 858.06 264.85 858.54 C268.11 861.11 268.11 861.11 272 862 C272 862.66 272 863.32 272 864 C272.98 864.55 273.97 865.1 274.98 865.66 C279.19 868.07 283.21 870.71 287.25 873.38 C292.7 876.93 298.15 880.35 303.93 883.37 C306.37 884.67 308.77 886 311.17 887.38 C329.17 897.65 348.21 906.72 368 913 C369.12 913.36 369.12 913.36 370.26 913.72 C374.32 915.02 378.39 916.31 382.46 917.57 C385.53 918.53 388.58 919.52 391.63 920.55 C397.69 922.58 403.84 924.29 410 926 C411.17 926.33 411.17 926.33 412.36 926.66 C415.66 927.55 418.86 928.12 422.25 928.44 C425.79 928.77 429.06 929.48 432.49 930.41 C482.19 943.06 545.15 943.37 594.75 929.84 C597.4 929.15 599.78 928.71 602.5 928.5 C606.84 928.16 610.98 927.12 615.19 926.06 C615.87 925.89 616.54 925.72 617.24 925.55 C621.22 924.52 625.1 923.31 629 922 C631.02 921.4 633.04 920.83 635.06 920.25 C641.36 918.45 647.52 916.6 653.53 913.99 C655.67 913.13 657.8 912.41 660 911.71 C665.99 909.73 671.76 907.28 677.56 904.81 C678.71 904.32 679.87 903.83 681.05 903.33 C689.23 899.83 697.25 896.13 705.12 891.99 C707.12 890.94 709.14 889.9 711.15 888.86 C732.65 877.71 752.83 864.82 772 850 C773.12 849.15 774.23 848.31 775.35 847.46 C782.83 841.73 789.82 835.63 796.65 829.14 C799.02 826.89 801.44 824.74 803.91 822.61 C808.14 818.93 812.11 815.03 816.06 811.06 C816.73 810.4 817.4 809.73 818.09 809.05 C822.6 804.53 826.85 799.85 831 795 C831.49 794.43 831.98 793.87 832.48 793.28 C842.46 783.49 842.46 783.49 848 772 C848.66 772 849.32 772 850 772 C851.81 769.78 851.81 769.78 853.75 766.81 C854.32 765.97 854.32 765.97 854.91 765.1 C856.28 763.07 857.64 761.04 859 759 C860.15 757.28 861.31 755.57 862.46 753.85 C875.15 737.98 875.15 737.98 882 720 C882.66 720 883.32 720 884 720 C884.48 719.03 884.97 718.06 885.47 717.06 C885.79 716.42 886.11 715.78 886.44 715.13 C887.16 713.69 887.88 712.25 888.59 710.81 C890.39 707.21 892.19 703.62 894.03 700.04 C906.57 675.58 918.08 648.26 924.06 621.38 C925.82 613.59 925.82 613.59 926.97 609.86 C928.55 603.94 929.45 597.92 930.44 591.88 C930.6 590.88 930.6 590.88 930.77 589.86 C932.14 581.46 933.5 573.05 934.75 564.62 C934.87 563.87 934.98 563.12 935.1 562.35 C937.34 546.71 937.16 530.93 937.13 515.17 C937.13 511.51 937.13 507.84 937.14 504.18 C937.15 459.19 929.82 414.64 913.84 372.49 C913 370 912.46 367.58 912 365 C911.34 365 910.68 365 910 365 C909.88 364.32 909.77 363.63 909.65 362.93 C904.87 341.35 892.09 320.7 881.44 301.6 C878.93 297.08 876.47 292.54 874 288 C873.34 288 872.68 288 872 288 C871.83 287.13 871.83 287.13 871.65 286.25 C870.94 283.79 869.95 282.14 868.52 280.02 C868.02 279.27 867.52 278.53 867 277.75 C866.46 276.97 865.93 276.18 865.38 275.38 C864.83 274.57 864.29 273.77 863.73 272.95 C862.65 271.35 861.57 269.76 860.48 268.18 C859.22 266.32 857.97 264.46 856.72 262.59 C856.11 261.7 855.5 260.8 854.88 259.88 C854.36 259.11 853.84 258.34 853.3 257.55 C852.87 257.04 852.44 256.53 852 256 C851.34 256 850.68 256 850 256 C849.67 254.96 849.67 254.96 849.33 253.9 C847.67 250.28 845.31 247.57 842.69 244.62 C841.58 243.36 840.48 242.1 839.37 240.84 C838.81 240.2 838.24 239.56 837.66 238.9 C836.13 237.15 834.64 235.38 833.16 233.59 C826.08 225.11 818.43 217.25 810.62 209.44 C810.1 208.91 809.58 208.39 809.04 207.85 C800.45 197.67 800.45 197.67 790 192 C790 191.34 790 190.68 790 190 C788.5 188.6 786.92 187.28 785.31 186 C783.79 184.79 783.79 184.79 782.24 183.55 C781.16 182.7 780.08 181.85 779 181 C777.52 179.83 777.52 179.83 776.01 178.64 C757.32 161.64 757.32 161.64 736 152 C736 151.34 736 150.68 736 150 C735.49 149.72 734.98 149.44 734.45 149.15 C730.07 146.73 725.74 144.25 721.44 141.69 C703.96 131.49 685.21 123.44 666.62 115.5 C665.87 115.17 665.12 114.85 664.34 114.51 C660.26 112.79 656.29 111.49 651.98 110.5 C649.25 109.81 646.62 108.88 643.97 107.95 C633.15 104.14 622.19 101.47 611 99 C610.05 98.78 609.1 98.57 608.12 98.35 C594.26 95.22 580.44 92.85 566.31 91.36 C563.91 91.1 561.51 90.8 559.12 90.48 C545.24 88.71 531.37 88.69 517.4 88.74 C514.01 88.75 510.62 88.74 507.24 88.73 C486.66 88.67 466.01 89.03 445.75 93 Z " fill="#E2E7F2" transform="translate(0,0)"/>
<path d="M0 0 C1.46 -0 2.92 -0.01 4.39 -0.02 C8.32 -0.03 12.25 -0.03 16.18 -0.04 C18.65 -0.04 21.12 -0.05 23.59 -0.05 C31.36 -0.06 39.12 -0.07 46.89 -0.08 C55.78 -0.08 64.67 -0.1 73.56 -0.13 C80.49 -0.15 87.41 -0.16 94.33 -0.16 C98.45 -0.16 102.56 -0.17 106.67 -0.19 C143.34 -0.34 177.91 2.74 207.82 26.16 C208.68 26.83 208.68 26.83 209.56 27.52 C236.94 49.28 250.64 78.79 254.82 113.16 C255.06 117.31 255.06 121.43 255.02 125.59 C255.02 126.58 255.01 127.57 255.01 128.59 C255 132.21 254.97 135.84 254.95 139.47 C254.91 147.62 254.87 155.77 254.82 164.16 C228.42 164.16 202.02 164.16 174.82 164.16 C174.57 143.47 174.57 143.47 174.52 137.03 C174.32 122.62 172.86 110.93 163.82 99.16 C162.96 97.86 162.96 97.86 162.07 96.54 C154.06 88.08 141.96 81.6 130.2 81.04 C129.25 81.03 128.31 81.03 127.34 81.03 C125.7 81.03 125.7 81.03 124.03 81.03 C122.84 81.03 121.66 81.03 120.44 81.03 C119.18 81.03 117.92 81.03 116.62 81.03 C113.18 81.02 109.74 81.02 106.29 81.03 C102.67 81.03 99.06 81.03 95.44 81.03 C89.36 81.02 83.27 81.03 77.19 81.03 C70.19 81.04 63.18 81.03 56.18 81.03 C50.15 81.02 44.12 81.02 38.09 81.03 C34.49 81.03 30.9 81.03 27.3 81.02 C23.28 81.02 19.26 81.03 15.24 81.03 C13.49 81.03 13.49 81.03 11.7 81.03 C-7.68 81.07 -24.34 82.91 -38.92 96.79 C-42.28 100.33 -44.88 103.86 -47.18 108.16 C-47.66 109.06 -48.15 109.96 -48.65 110.88 C-54.02 122.48 -54.41 137.07 -50.3 149.16 C-44.55 161.13 -35.13 170.67 -25.75 179.87 C-24.04 181.55 -22.34 183.24 -20.63 184.94 C-19.52 186.04 -18.41 187.14 -17.29 188.25 C-16.8 188.74 -16.3 189.23 -15.79 189.74 C-13.71 191.78 -11.64 193.79 -9.37 195.62 C-5.45 198.81 -2.6 201.84 0.06 206.14 C4.97 213.35 10.67 219.55 19.3 221.81 C34.99 224.64 51.45 223.67 67.31 223.39 C73.31 223.3 79.3 223.31 85.3 223.31 C97.16 223.32 109.01 223.24 120.87 223.1 C132.37 222.96 143.88 222.87 155.38 222.83 C156.45 222.83 156.45 222.83 157.54 222.83 C161.11 222.81 164.68 222.8 168.25 222.79 C197.78 222.71 227.3 222.48 256.82 222.16 C256.83 235.92 256.84 249.68 256.85 263.44 C256.85 269.83 256.85 276.23 256.86 282.62 C256.89 321.42 256.65 360.2 256.11 398.99 C256.1 399.75 256.08 400.5 256.07 401.28 C256.05 402.8 256.03 404.32 256 405.83 C255.94 409.42 255.92 413.01 255.97 416.6 C255.96 420.37 255.61 424.02 255.1 427.76 C253.44 440.67 252.51 453.16 260.71 464.01 C266.88 471.65 274.09 478.35 281.27 485.02 C284.86 488.39 288.35 491.87 291.86 495.33 C298.49 501.85 305.2 508.27 311.94 514.67 C319.62 521.97 327.21 529.36 334.79 536.76 C344.03 545.78 353.28 554.78 362.61 563.71 C363.27 564.34 363.92 564.96 364.6 565.61 C367.67 568.55 370.75 571.49 373.83 574.42 C374.9 575.44 375.97 576.46 377.04 577.49 C378.43 578.81 378.43 578.81 379.85 580.17 C381.82 582.16 381.82 582.16 381.82 583.16 C367.18 583.47 352.55 583.69 337.9 583.83 C331.11 583.9 324.31 583.99 317.51 584.14 C310.94 584.29 304.37 584.36 297.8 584.39 C295.31 584.42 292.81 584.47 290.31 584.54 C268.69 585.12 268.69 585.12 261.75 578.83 C259.2 576.1 257 573.2 254.82 570.16 C253.66 568.81 252.49 567.46 251.29 566.14 C250.76 565.52 250.24 564.9 249.7 564.26 C245.14 559.15 240.18 554.4 235.33 549.57 C234.13 548.37 232.92 547.17 231.72 545.97 C228.59 542.84 225.45 539.71 222.31 536.58 C219.1 533.38 215.89 530.17 212.68 526.97 C206.39 520.69 200.11 514.43 193.82 508.16 C188.83 512.04 185.38 515.86 182.16 521.27 C166.19 546.72 143.33 577.99 112.48 585.27 C86.65 590.61 59.41 589.52 33.2 588.72 C32.28 588.7 31.37 588.67 30.43 588.64 C-41.15 586.53 -105.4 581.83 -157.98 527.61 C-183.82 498.87 -199.33 463.69 -204.82 425.56 C-205.08 423.85 -205.38 422.15 -205.71 420.45 C-206.31 416.22 -206.38 412.06 -206.42 407.79 C-206.43 406.89 -206.44 405.99 -206.45 405.06 C-206.61 386.06 -206.72 367.71 -202.18 349.16 C-201.97 348.26 -201.77 347.37 -201.56 346.45 C-190.97 300.26 -164.18 269.92 -131.49 237.47 C-127.86 233.87 -124.23 230.26 -120.6 226.65 C-119.77 225.83 -118.94 225 -118.08 224.15 C-117.32 223.39 -116.56 222.64 -115.77 221.85 C-115.1 221.19 -114.43 220.52 -113.74 219.83 C-112.09 218.23 -112.09 218.23 -111.18 216.16 C-112.06 215.77 -112.06 215.77 -112.95 215.38 C-126.23 208.11 -133.96 187.48 -137.99 173.7 C-145.73 145.05 -144.1 113.08 -134.18 85.16 C-133.93 84.46 -133.68 83.75 -133.43 83.03 C-122.25 51.92 -97.46 27.01 -67.89 12.81 C-66.58 12.2 -65.28 11.59 -63.97 10.99 C-62.38 10.25 -60.81 9.48 -59.24 8.7 C-52.95 5.75 -46.59 4.23 -39.8 2.91 C-38.97 2.75 -38.13 2.58 -37.26 2.42 C-24.95 0.2 -12.48 0.01 0 0 Z " fill="#040C13" transform="translate(436.177490234375,199.8388671875)"/>
<path d="M0 0 C4.1 1.61 6.76 4.58 9.75 7.69 C12.86 10.91 15.98 14.02 19.4 16.91 C25.49 22.21 31.11 27.99 36.81 33.71 C38.09 34.99 39.36 36.27 40.64 37.55 C43.38 40.29 46.12 43.04 48.86 45.79 C53.2 50.14 57.54 54.48 61.88 58.82 C71.87 68.83 81.86 78.84 91.85 88.85 C101.01 98.03 110.17 107.21 119.33 116.38 C123.64 120.7 127.94 125.01 132.25 129.33 C134.93 132.02 137.62 134.71 140.3 137.4 C141.54 138.64 142.78 139.88 144.02 141.12 C152.51 149.65 152.51 149.65 161.46 157.69 C163.58 159.49 165.54 161.43 167.5 163.4 C168.24 164.15 168.98 164.89 169.75 165.66 C170.49 166.41 171.23 167.16 172 167.94 C172.77 168.72 173.55 169.5 174.35 170.3 C176.23 172.2 178.12 174.1 180 176 C175.32 181.64 170.3 186.82 165.09 191.97 C163.83 193.23 163.83 193.23 162.54 194.51 C158.96 198.08 155.37 201.63 151.79 205.19 C149.16 207.8 146.53 210.42 143.91 213.03 C143.1 213.83 142.3 214.62 141.47 215.44 C140.33 216.58 140.33 216.58 139.17 217.74 C138.5 218.39 137.84 219.05 137.16 219.72 C135.04 221.82 135.04 221.82 133.81 223.79 C131.71 226.77 130.18 228.69 126.58 229.64 C123.53 229.89 120.54 229.91 117.48 229.86 C116.33 229.87 115.17 229.87 113.98 229.88 C110.17 229.9 106.36 229.86 102.54 229.82 C99.88 229.82 97.22 229.82 94.55 229.82 C88.96 229.82 83.37 229.79 77.78 229.75 C71.37 229.7 64.95 229.68 58.53 229.69 C52.32 229.7 46.11 229.68 39.89 229.65 C37.27 229.64 34.65 229.64 32.02 229.64 C-2.18 229.6 -2.18 229.6 -17.38 221.25 C-18.03 220.9 -18.69 220.56 -19.36 220.2 C-43.92 206.89 -61.08 184.46 -69.31 157.95 C-72.84 145.26 -74.39 133.04 -74.38 119.88 C-74.37 119.2 -74.37 118.52 -74.37 117.82 C-74.34 106.74 -73.38 96.57 -70 86 C-69.44 84.24 -69.44 84.24 -68.87 82.45 C-59.99 57.4 -39.45 39.28 -21.06 21 C-19.57 19.51 -18.08 18.02 -16.58 16.54 C-13.86 13.82 -11.13 11.1 -8.41 8.39 C-5.6 5.6 -2.8 2.8 0 0 Z " fill="#C4E15E" transform="translate(383,474)"/>
<path d="M0 0 C30.69 0 61.38 0 93 0 C93 30.36 93 60.72 93 92 C85.13 85.25 85.13 85.25 82.03 82.13 C81.33 81.43 80.64 80.73 79.92 80.01 C79.2 79.28 78.47 78.54 77.72 77.79 C76.95 77.01 76.18 76.24 75.39 75.44 C72.12 72.16 68.86 68.87 65.6 65.58 C63.21 63.17 60.81 60.76 58.41 58.35 C57.69 57.62 56.96 56.88 56.22 56.13 C52.93 52.83 49.63 49.63 46.1 46.59 C41.18 42.35 36.62 37.76 32.03 33.16 C31.11 32.24 30.19 31.32 29.24 30.38 C27.31 28.45 25.38 26.52 23.45 24.58 C20.98 22.1 18.5 19.62 16.01 17.15 C13.64 14.78 11.27 12.41 8.91 10.04 C8.01 9.15 7.12 8.26 6.2 7.34 C5.38 6.52 4.57 5.7 3.73 4.86 C3.01 4.14 2.28 3.41 1.54 2.67 C0 1 0 1 0 0 Z " fill="#C5E160" transform="translate(518,488)"/>
<path d="M0 0 C0.66 0 1.32 0 2 0 C2.66 3.63 3.32 7.26 4 11 C4.33 11 4.66 11 5 11 C5 21.23 5 31.46 5 42 C4.01 42 3.02 42 2 42 C-0.25 37.52 -0.26 33.32 -0.2 28.42 C-0.19 27.6 -0.19 26.79 -0.19 25.95 C-0.18 23.36 -0.15 20.78 -0.12 18.19 C-0.11 16.43 -0.11 14.67 -0.1 12.91 C-0.08 8.61 -0.04 4.3 0 0 Z " fill="#B8D35C" transform="translate(225,576)"/>
<path d="M0 0 C3.86 1.59 6.3 4.06 9.23 7 C9.74 7.51 10.24 8.02 10.77 8.54 C12.44 10.21 14.1 11.89 15.77 13.57 C16.93 14.73 18.09 15.9 19.25 17.06 C22.3 20.12 25.34 23.18 28.38 26.24 C31.49 29.37 34.6 32.49 37.71 35.61 C43.81 41.74 49.91 47.87 56 54 C53 54 53 54 50.86 52.16 C50.05 51.33 49.24 50.49 48.4 49.62 C47.52 48.72 46.64 47.82 45.72 46.89 C44.79 45.93 43.87 44.96 42.94 44 C41.12 42.12 39.29 40.25 37.46 38.38 C36.66 37.54 35.85 36.7 35.02 35.84 C33.21 33.78 33.21 33.78 31 34 C30.58 33.3 30.17 32.6 29.74 31.88 C27.66 28.43 25.05 25.79 22.19 23 C21.68 22.49 21.17 21.98 20.65 21.46 C18.09 18.94 15.5 16.54 12.72 14.27 C10 12 10 12 8.31 9.69 C7.88 9.13 7.45 8.57 7 8 C6.01 8 5.02 8 4 8 C4 6.68 4 5.36 4 4 C2.68 3.34 1.36 2.68 0 2 C0 1.34 0 0.68 0 0 Z " fill="#CADC79" transform="translate(399,489)"/>
<path d="M0 0 C6.6 0.33 13.2 0.66 20 1 C17.13 3.87 14.17 3.47 10.31 3.62 C9.11 3.68 9.11 3.68 7.88 3.74 C-5.4 4.28 -18.71 4.08 -32 4 C-32 3.34 -32 2.68 -32 2 C-21.44 2 -10.88 2 0 2 C0 1.34 0 0.68 0 0 Z " fill="#C4DC74" transform="translate(528,934)"/>
<path d="M0 0 C1.97 2.95 2.42 4.37 3 7.76 C3.25 9.18 3.25 9.18 3.5 10.63 C3.75 12.14 3.75 12.14 4 13.69 C4.17 14.72 4.35 15.75 4.53 16.81 C8.39 40.13 8.39 40.13 8 51 C7.67 51 7.34 51 7 51 C6.77 48.95 6.54 46.9 6.32 44.85 C6.18 42.99 6.18 42.99 5 42 C4.71 38.41 4.55 34.82 4.38 31.22 C4.33 27.91 4.33 27.91 2 26 C2 25.01 2 24.02 2 23 C1.34 23 0.68 23 0 23 C0 15.41 0 7.82 0 0 Z " fill="#C2DD6E" transform="translate(928,426)"/>
<path d="M0 0 C2 2 2 2 2.23 4.25 C2.22 5.16 2.21 6.07 2.2 7.01 C2.19 7.99 2.18 8.98 2.18 10 C2.16 11.03 2.14 12.06 2.12 13.12 C2.12 14.17 2.11 15.21 2.1 16.28 C2.07 18.85 2.04 21.43 2 24 C2.66 24 3.32 24 4 24 C4 18.72 4 13.44 4 8 C4.66 7.67 5.32 7.34 6 7 C6 13.27 6 19.54 6 26 C5.34 26 4.68 26 4 26 C4 30.29 4 34.58 4 39 C3.67 39 3.34 39 3 39 C0.52 26.06 -0.22 13.16 0 0 Z " fill="#C3DC73" transform="translate(87,533)"/>
<path d="M0 0 C5.07 4.24 9.81 8.68 14.46 13.37 C15.14 14.05 15.82 14.73 16.52 15.43 C18.66 17.57 20.8 19.72 22.94 21.88 C24.4 23.34 25.86 24.81 27.32 26.27 C30.88 29.85 34.44 33.42 38 37 C35 37 35 37 32.44 34.78 C31.43 33.77 30.42 32.74 29.41 31.71 C28.88 31.16 28.34 30.62 27.78 30.06 C26.06 28.32 24.34 26.57 22.62 24.81 C21.48 23.65 20.33 22.49 19.18 21.33 C17.05 19.18 14.93 17.02 12.81 14.86 C10.23 12.22 7.62 9.61 5 7 C4.01 7.5 4.01 7.5 3 8 C2.01 7.34 1.02 6.68 0 6 C0.66 5.34 1.32 4.68 2 4 C1.34 2.68 0.68 1.36 0 0 Z " fill="#000508" transform="translate(517,488)"/>
<path d="M0 0 C0.47 0.41 0.94 0.82 1.43 1.24 C2.36 2.05 2.36 2.05 3.31 2.88 C3.93 3.41 4.54 3.94 5.18 4.49 C7.13 6.16 7.13 6.16 10 8 C8.57 11.26 6.83 13.4 4.3 15.89 C3.23 16.95 3.23 16.95 2.14 18.04 C1.39 18.77 0.64 19.5 -0.12 20.25 C-0.88 21 -1.63 21.74 -2.41 22.51 C-4.27 24.34 -6.13 26.17 -8 28 C-8.66 27.67 -9.32 27.34 -10 27 C-9.55 26.57 -9.09 26.13 -8.62 25.69 C-6.57 23.72 -4.54 21.73 -2.5 19.75 C-1.78 19.07 -1.07 18.39 -0.33 17.68 C0.34 17.02 1.02 16.36 1.72 15.67 C2.35 15.06 2.98 14.46 3.62 13.83 C5.4 11.85 5.4 11.85 5 8 C3.35 7.67 1.7 7.34 0 7 C0.19 6.4 0.37 5.8 0.56 5.19 C1.22 2.84 1.22 2.84 0 0 Z " fill="#D0E676" transform="translate(315,408)"/>
<path d="M0 0 C0.33 0 0.66 0 1 0 C0.86 2.98 0.71 5.96 0.56 8.94 C0.52 9.79 0.48 10.64 0.44 11.51 C0.4 12.32 0.36 13.13 0.32 13.96 C0.28 14.71 0.24 15.46 0.21 16.23 C0 18 0 18 -1 19 C-1.28 21.29 -1.45 23.57 -1.62 25.87 C-2 28 -2 28 -4 30 C-6 28 -6 28 -6.07 26.19 C-5.31 20.29 -4.02 14.66 -2.44 8.94 C-2.2 8.07 -1.97 7.21 -1.73 6.31 C-1.16 4.21 -0.58 2.1 0 0 Z " fill="#0D1415" transform="translate(239,530)"/>
<path d="M0 0 C1.92 2.88 2.61 4.77 3.47 8.07 C3.73 9.05 3.99 10.03 4.26 11.04 C4.52 12.05 4.79 13.07 5.06 14.12 C5.59 16.15 6.12 18.17 6.66 20.2 C6.89 21.09 7.13 21.99 7.37 22.91 C7.81 24.97 7.81 24.97 9 26 C9.04 27.67 9.04 29.33 9 31 C5.68 28.62 4.23 27.27 3.48 23.17 C3.33 21.1 3.21 19.02 3.14 16.94 C3.01 14.19 2.61 11.68 2 9 C1.34 9 0.68 9 0 9 C0 9.99 0 10.98 0 12 C-0.66 12 -1.32 12 -2 12 C-1.86 11.32 -1.71 10.64 -1.56 9.94 C-0.93 6.64 -0.46 3.33 0 0 Z " fill="#E2EAE2" transform="translate(99,617)"/>
<path d="M0 0 C1.49 0.99 1.49 0.99 3 2 C3.45 4.24 3.45 4.24 3.55 7.02 C3.59 8.02 3.63 9.02 3.67 10.06 C3.71 11.64 3.71 11.64 3.75 13.25 C3.79 14.29 3.84 15.33 3.88 16.39 C4.05 21.4 4.12 26.08 3 31 C2.34 30.67 1.68 30.34 1 30 C-0.07 23.31 -0.12 16.7 -0.06 9.94 C-0.06 8.5 -0.06 8.5 -0.05 7.03 C-0.04 4.68 -0.02 2.34 0 0 Z " fill="#162020" transform="translate(306,588)"/>
<path d="M0 0 C1.33 2.65 0.74 3.73 0 6.57 C-0.22 7.47 -0.45 8.36 -0.69 9.29 C-0.94 10.22 -1.18 11.16 -1.44 12.12 C-1.68 13.07 -1.92 14.01 -2.17 14.99 C-2.78 17.33 -3.39 19.66 -4 22 C-4.33 22 -4.66 22 -5 22 C-5.33 20.02 -5.66 18.04 -6 16 C-6.33 17.65 -6.66 19.3 -7 21 C-7.66 21 -8.32 21 -9 21 C-9.29 12.43 -9.29 12.43 -7 9 C-6.34 9 -5.68 9 -5 9 C-5 10.65 -5 12.3 -5 14 C-4.34 14 -3.68 14 -3 14 C-3.02 13.4 -3.05 12.79 -3.07 12.17 C-3.09 11.37 -3.11 10.57 -3.12 9.75 C-3.15 8.96 -3.17 8.17 -3.2 7.36 C-2.95 4.41 -2.11 2.11 0 0 Z " fill="#C2DD6C" transform="translate(924,615)"/>
<path d="M0 0 C0.33 0 0.66 0 1 0 C2.03 6.7 2.1 13.23 2 20 C1.67 20 1.34 20 1 20 C1 16.7 1 13.4 1 10 C0.34 10 -0.32 10 -1 10 C-0.99 10.78 -0.98 11.56 -0.96 12.37 C-0.96 13.38 -0.95 14.39 -0.94 15.44 C-0.93 16.45 -0.91 17.46 -0.9 18.5 C-1 21 -1 21 -2 22 C-2.37 24.33 -2.7 26.66 -3 29 C-3.33 29 -3.66 29 -4 29 C-4.14 23.38 -3.69 18.31 -2.56 12.81 C-2.43 12.13 -2.29 11.44 -2.15 10.74 C-1.78 8.82 -1.39 6.91 -1 5 C-0.8 4.01 -0.61 3.03 -0.4 2.01 C-0.27 1.35 -0.14 0.68 0 0 Z " fill="#C5DC80" transform="translate(94,432)"/>
<path d="M0 0 C7.04 1.89 14.03 3.87 21 6 C17.3 8.47 16.2 7.82 12 7 C11.67 7.33 11.34 7.66 11 8 C9.33 8.04 7.67 8.04 6 8 C6.33 7.34 6.66 6.68 7 6 C7.99 6 8.98 6 10 6 C10 5.34 10 4.68 10 4 C9.13 4.31 9.13 4.31 8.25 4.62 C5.42 5.1 4.36 4.58 2 3 C1.34 2.01 0.68 1.02 0 0 Z " fill="#CBE56F" transform="translate(344,773)"/>
<path d="M0 0 C0.99 0 1.98 0 3 0 C3 0.99 3 1.98 3 3 C4.32 2.67 5.64 2.34 7 2 C6.67 2.99 6.34 3.98 6 5 C7.32 5.66 8.64 6.32 10 7 C10 7.66 10 8.32 10 9 C4.8 7.4 -0.07 5.26 -5 3 C-5 2.67 -5 2.34 -5 2 C-3.35 2 -1.7 2 0 2 C0 1.34 0 0.68 0 0 Z " fill="#C2DC6C" transform="translate(341,897)"/>
<path d="M0 0 C0 0.99 0 1.98 0 3 C0.66 3.66 1.32 4.32 2 5 C-4.25 4.57 -10.04 3.99 -16 2 C-16 1.67 -16 1.34 -16 1 C-10.63 0.32 -5.41 -0.12 0 0 Z " fill="#C0DA6A" transform="translate(448,928)"/>
<path d="M0 0 C-1.32 0.33 -2.64 0.66 -4 1 C-4 1.66 -4 2.32 -4 3 C-6.31 3 -8.62 3 -11 3 C-11 3.66 -11 4.32 -11 5 C-10.34 5 -9.68 5 -9 5 C-9 5.66 -9 6.32 -9 7 C-9.99 7 -10.98 7 -12 7 C-12 6.34 -12 5.68 -12 5 C-15.3 5.33 -18.6 5.66 -22 6 C-18.71 3.81 -15.92 2.96 -12.12 1.88 C-10.91 1.52 -9.7 1.17 -8.45 0.8 C-5.46 0.11 -3.04 -0.17 0 0 Z " fill="#C3DC76" transform="translate(407,102)"/>
<path d="M0 0 C0 4.23 -1.87 5.48 -4.69 8.56 C-5.99 10.02 -5.99 10.02 -7.32 11.5 C-9.89 13.89 -11.69 14.99 -15 16 C-10.3 10.34 -5.25 5.15 0 0 Z " fill="#151D12" transform="translate(538,675)"/>
<path d="M0 0 C2 1 4 2 6 3 C6 3.66 6 4.32 6 5 C6.66 5 7.32 5 8 5 C10.19 7.31 10.19 7.31 12 10 C11.67 10.99 11.34 11.98 11 13 C9.16 11.21 7.33 9.42 5.5 7.62 C4.71 6.86 4.71 6.86 3.91 6.09 C2.57 4.76 1.28 3.38 0 2 C0 1.34 0 0.68 0 0 Z " fill="#1F2719" transform="translate(692,769)"/>
<path d="M0 0 C2.9 1.45 3.09 3.31 4.19 6.31 C4.55 7.28 4.92 8.24 5.29 9.24 C6.01 12.03 5.99 13.34 5 16 C4.67 15.34 4.34 14.68 4 14 C3.67 14.66 3.34 15.32 3 16 C2.34 16 1.68 16 1 16 C1.01 15.43 1.02 14.86 1.04 14.28 C1.09 9.39 0.82 4.81 0 0 Z " fill="#E3EBE2" transform="translate(112,658)"/>
<path d="M0 0 C0.33 0 0.66 0 1 0 C1 8.25 1 16.5 1 25 C0.01 25 -0.98 25 -2 25 C-2 22.69 -2 20.38 -2 18 C-1.34 18 -0.68 18 0 18 C0 12.06 0 6.12 0 0 Z " fill="#0E171B" transform="translate(232,592)"/>
<path d="M0 0 C0.33 1.32 0.66 2.64 1 4 C1.66 4 2.32 4 3 4 C2.55 6.61 2.09 9.21 1.62 11.81 C1.5 12.55 1.37 13.29 1.24 14.05 C0.6 17.61 0.03 19.95 -2 23 C-1.55 17.09 -0.84 11.65 1 6 C0.34 6 -0.32 6 -1 6 C-1.04 4.33 -1.04 2.67 -1 1 C-0.67 0.67 -0.34 0.34 0 0 Z " fill="#E3EDE3" transform="translate(98,398)"/>
<path d="M0 0 C4.07 1.61 6.77 4.54 9.75 7.62 C10.26 8.14 10.76 8.66 11.29 9.19 C12.53 10.45 13.76 11.73 15 13 C14.01 13 13.02 13 12 13 C10.33 11.33 8.67 9.67 7 8 C6.01 8 5.02 8 4 8 C4 6.68 4 5.36 4 4 C2.68 3.34 1.36 2.68 0 2 C0 1.34 0 0.68 0 0 Z " fill="#BED16B" transform="translate(399,489)"/>
<path d="M0 0 C3.67 1.48 5.41 3.48 7.75 6.62 C8.67 7.85 8.67 7.85 9.61 9.1 C10.3 10.04 10.3 10.04 11 11 C8 11 8 11 5.5 8.88 C3.03 6.04 1.51 3.43 0 0 Z " fill="#0D1313" transform="translate(660,243)"/>
<path d="M0 0 C0.66 0.33 1.32 0.66 2 1 C1.86 1.68 1.71 2.37 1.57 3.07 C0.94 6.31 0.43 9.55 -0.06 12.81 C-0.24 13.97 -0.42 15.14 -0.6 16.33 C-0.73 17.21 -0.86 18.09 -1 19 C-1.33 19 -1.66 19 -2 19 C-2.22 17.25 -2.43 15.5 -2.62 13.75 C-2.74 12.78 -2.86 11.8 -2.98 10.8 C-3 7.82 -2.5 6.51 -1 4 C-0.63 2.68 -0.29 1.34 0 0 Z " fill="#C2DF4E" transform="translate(313,565)"/>
<path d="M0 0 C0.33 0.99 0.66 1.98 1 3 C0.01 4.49 0.01 4.49 -1 6 C-0.34 6.33 0.32 6.66 1 7 C-2.43 9.74 -3.65 10 -8 10 C-5.36 6.7 -2.72 3.4 0 0 Z " fill="#E1EAE3" transform="translate(846,775)"/>
<path d="M0 0 C7.48 6.15 7.48 6.15 10 10 C5.59 9.21 3.03 7.29 0.25 3.81 C-0.16 3.21 -0.58 2.62 -1 2 C-0.67 1.34 -0.34 0.68 0 0 Z " fill="#192117" transform="translate(567,537)"/>
<path d="M0 0 C0 3 0 3 -1.75 5.04 C-2.49 5.75 -3.24 6.46 -4 7.19 C-4.74 7.9 -5.49 8.62 -6.25 9.36 C-6.83 9.9 -7.4 10.44 -8 11 C-8.33 9.68 -8.66 8.36 -9 7 C-8.01 7 -7.02 7 -6 7 C-5.94 6.22 -5.88 5.43 -5.81 4.62 C-5.54 3.76 -5.28 2.89 -5 2 C-2.44 0.69 -2.44 0.69 0 0 Z " fill="#C6DB6E" transform="translate(302,438)"/>
<path d="M0 0 C4.95 0.33 9.9 0.66 15 1 C15 1.33 15 1.66 15 2 C7.57 3.48 7.57 3.48 0 5 C0 4.34 0 3.68 0 3 C1.32 2.67 2.64 2.34 4 2 C2.68 1.34 1.36 0.68 0 0 Z " fill="#E3ECE4" transform="translate(408,96)"/>
<path d="M0 0 C-1.44 3.36 -3.12 5.72 -6 8 C-8.13 7.61 -8.13 7.61 -10 7 C-8.71 5.83 -7.42 4.66 -6.12 3.5 C-5.05 2.53 -5.05 2.53 -3.95 1.53 C-2 0 -2 0 0 0 Z " fill="#CBE667" transform="translate(341,520)"/>
<path d="M0 0 C3.12 1.37 5.09 2.87 7.31 5.44 C7.84 6.03 8.38 6.63 8.93 7.25 C9.46 8.11 9.46 8.11 10 9 C9.67 9.99 9.34 10.98 9 12 C8.34 10.68 7.68 9.36 7 8 C6.34 8 5.68 8 5 8 C5 7.34 5 6.68 5 6 C4.34 6 3.68 6 3 6 C2.67 4.68 2.34 3.36 2 2 C1.34 2 0.68 2 0 2 C0 1.34 0 0.68 0 0 Z " fill="#BFDE54" transform="translate(825,227)"/>
<path d="M0 0 C0.33 0.99 0.66 1.98 1 3 C1.66 3 2.32 3 3 3 C3 2.01 3 1.02 3 0 C3.66 0 4.32 0 5 0 C4.52 1.96 4.04 3.92 3.56 5.88 C3.3 6.97 3.03 8.06 2.75 9.18 C2 12 2 12 1 14 C-0.21 9.33 -0.09 4.79 0 0 Z " fill="#C2DF4E" transform="translate(240,511)"/>
<path d="M0 0 C0.33 0.66 0.66 1.32 1 2 C1.66 2 2.32 2 3 2 C2.67 3.65 2.34 5.3 2 7 C1.34 6.01 0.68 5.02 0 4 C-0.66 6.64 -1.32 9.28 -2 12 C-2.33 12 -2.66 12 -3 12 C-3.15 4 -3.15 4 -2 1 C-1.34 0.67 -0.68 0.34 0 0 Z " fill="#CBE373" transform="translate(314,562)"/>
<path d="M0 0 C0.33 0 0.66 0 1 0 C2.03 6.7 2.1 13.23 2 20 C1.67 20 1.34 20 1 20 C1 16.7 1 13.4 1 10 C0.34 10 -0.32 10 -1 10 C-0.67 6.7 -0.34 3.4 0 0 Z " fill="#C1DA72" transform="translate(94,432)"/>
<path d="M0 0 C2.54 2.21 3.55 3.65 4 7 C4.07 9.67 4.04 12.32 4 15 C2.5 13.94 2.5 13.94 1 12 C0.88 8.62 0.88 8.62 1 5 C0.71 3.32 0.4 1.65 0 0 Z " fill="#D2E77A" transform="translate(606,310)"/>
<path d="M0 0 C2 3 2 3 2 5 C1.01 5 0.02 5 -1 5 C-1 4.34 -1 3.68 -1 3 C-2.42 3.99 -2.42 3.99 -3.88 5 C-7 7 -7 7 -9 7 C-9 6.34 -9 5.68 -9 5 C-6.03 3.35 -3.06 1.7 0 0 Z " fill="#09100C" transform="translate(362,216)"/>
<path d="M0 0 C0.66 0 1.32 0 2 0 C2 0.99 2 1.98 2 3 C2.99 3.33 3.98 3.66 5 4 C3.44 5.19 3.44 5.19 1 6 C-2.75 4.62 -2.75 4.62 -6 3 C-5.38 2.88 -4.76 2.75 -4.12 2.62 C-1.81 2.13 -1.81 2.13 0 0 Z " fill="#E1E9E4" transform="translate(680,117)"/>
<path d="M0 0 C-0.33 0.66 -0.66 1.32 -1 2 C-0.34 2 0.32 2 1 2 C1.33 1.34 1.66 0.68 2 0 C2 1.32 2 2.64 2 4 C-2.22 3.52 -4.8 2.83 -8 0 C-4.71 -0.8 -3.29 -1.1 0 0 Z " fill="#E3ECE5" transform="translate(668,113)"/>
<path d="M0 0 C1.79 0.45 3.58 0.91 5.38 1.38 C6.37 1.63 7.37 1.89 8.4 2.15 C11 3 11 3 13 5 C5.26 5.3 5.26 5.3 2 3 C1.34 2.01 0.68 1.02 0 0 Z " fill="#D2E978" transform="translate(344,773)"/>
<path d="M0 0 C2 0 2 0 4.44 2.25 C6.47 4.43 8.29 6.57 10 9 C7 9 7 9 5.18 7.54 C4.56 6.91 3.95 6.28 3.31 5.62 C2.69 5 2.07 4.37 1.43 3.73 C0 2 0 2 0 0 Z " fill="#BED26A" transform="translate(417,385)"/>
<path d="M0 0 C0.33 0 0.66 0 1 0 C1.08 1.05 1.16 2.1 1.25 3.19 C2.05 7.27 3.19 9.01 6 12 C5.01 12.33 4.02 12.66 3 13 C2.71 12.2 2.42 11.39 2.12 10.56 C1.27 7.87 1.27 7.87 -1 7 C-0.67 4.69 -0.34 2.38 0 0 Z " fill="#1B2515" transform="translate(690,649)"/>
<path d="M0 0 C1.22 0.03 1.22 0.03 2.46 0.07 C3.69 0.1 3.69 0.1 4.94 0.12 C5.88 0.16 5.88 0.16 6.84 0.2 C6.84 1.19 6.84 2.18 6.84 3.2 C3.21 2.87 -0.42 2.54 -4.16 2.2 C-2.16 0.2 -2.16 0.2 0 0 Z " fill="#C2E24D" transform="translate(458.1640625,930.8046875)"/>
<path d="M0 0 C3.37 1.39 4.99 2.98 7 6 C6.34 6.66 5.68 7.32 5 8 C0 2.25 0 2.25 0 0 Z " fill="#141A15" transform="translate(336,673)"/>
<path d="M0 0 C3.26 0.35 4.02 1.02 6.25 3.56 C6.83 4.37 7.4 5.17 8 6 C6.35 5.67 4.7 5.34 3 5 C3 4.34 3 3.68 3 3 C2.01 3 1.02 3 0 3 C0 2.01 0 1.02 0 0 Z " fill="#D2ED69" transform="translate(528,619)"/>
<path d="M0 0 C0.33 0 0.66 0 1 0 C1 3.63 1 7.26 1 11 C0.01 11 -0.98 11 -2 11 C-2 8.36 -2 5.72 -2 3 C-1.34 3 -0.68 3 0 3 C0 2.01 0 1.02 0 0 Z " fill="#D2EC6D" transform="translate(229,607)"/>
<path d="M0 0 C0.66 0.33 1.32 0.66 2 1 C1.38 2.88 1.38 2.88 0 5 C-3.12 6.25 -3.12 6.25 -6 7 C-4.02 4.69 -2.04 2.38 0 0 Z " fill="#BAD164" transform="translate(378,479)"/>
<path d="M0 0 C0.33 0.66 0.66 1.32 1 2 C-1.36 4.73 -3.58 5.89 -7 7 C-7.99 7 -8.98 7 -10 7 C-8.71 6.02 -7.42 5.04 -6.12 4.06 C-5.05 3.24 -5.05 3.24 -3.95 2.41 C-2 1 -2 1 0 0 Z " fill="#CFE577" transform="translate(409,287)"/>
<path d="M0 0 C1.65 0 3.3 0 5 0 C5 0.66 5 1.32 5 2 C4.01 2 3.02 2 2 2 C2 2.66 2 3.32 2 4 C-0.31 3.67 -2.62 3.34 -5 3 C-5 2.67 -5 2.34 -5 2 C-3.35 2 -1.7 2 0 2 C0 1.34 0 0.68 0 0 Z " fill="#C0DB66" transform="translate(382,913)"/>
<path d="M0 0 C0.33 0.66 0.66 1.32 1 2 C-1.31 4.64 -3.62 7.28 -6 10 C-6.66 9.67 -7.32 9.34 -8 9 C-5.36 6.03 -2.72 3.06 0 0 Z " fill="#E3EBE2" transform="translate(827,798)"/>
<path d="M0 0 C1.45 2.9 0.45 4.56 -0.44 7.62 C-0.87 9.13 -0.87 9.13 -1.31 10.66 C-1.54 11.43 -1.76 12.21 -2 13 C-2.33 13 -2.66 13 -3 13 C-3.33 10.69 -3.66 8.38 -4 6 C-3.01 5.67 -2.02 5.34 -1 5 C-0.67 3.35 -0.34 1.7 0 0 Z " fill="#E2EAE3" transform="translate(104,389)"/>
<path d="M0 0 C0.33 0 0.66 0 1 0 C1 1.65 1 3.3 1 5 C1.66 5.33 2.32 5.66 3 6 C2.36 6.27 1.72 6.54 1.06 6.81 C-1.33 7.89 -1.33 7.89 -2 11 C-1.12 3.38 -1.12 3.38 0 0 Z " fill="#C4DD72" transform="translate(106,384)"/>
<path d="M0 0 C2.19 0.31 2.19 0.31 4 1 C3.01 2.32 2.02 3.64 1 5 C-0.32 4.34 -1.64 3.68 -3 3 C-1.75 1.44 -1.75 1.44 0 0 Z " fill="#CDE86A" transform="translate(325,240)"/>
<path d="M0 0 C0.33 0.66 0.66 1.32 1 2 C-0.32 3.32 -1.64 4.64 -3 6 C-3.33 5.34 -3.66 4.68 -4 4 C-4.66 4 -5.32 4 -6 4 C-6 3.34 -6 2.68 -6 2 C-4.02 1.34 -2.04 0.68 0 0 Z " fill="#CCE569" transform="translate(311,263)"/>
<path d="M0 0 C4.03 0.55 8.02 1.16 12 2 C12 2.33 12 2.66 12 3 C10.38 3.08 8.75 3.14 7.12 3.19 C5.77 3.24 5.77 3.24 4.38 3.29 C3.2 3.15 3.2 3.15 2 3 C1.34 2.01 0.68 1.02 0 0 Z " fill="#C2DC70" transform="translate(612,100)"/>
<path d="M0 0 C0.33 0 0.66 0 1 0 C1 3.3 1 6.6 1 10 C0.34 10 -0.32 10 -1 10 C-1.33 10.66 -1.66 11.32 -2 12 C-1.33 8 -0.67 4 0 0 Z " fill="#DDE8DA" transform="translate(930,590)"/>
<path d="M0 0 C0.33 0.66 0.66 1.32 1 2 C0.34 1.67 -0.32 1.34 -1 1 C-0.67 0.67 -0.34 0.34 0 0 Z M-5 1 C-4.67 1.66 -4.34 2.32 -4 3 C-3.34 3.33 -2.68 3.66 -2 4 C-2.66 4.66 -3.32 5.32 -4 6 C-6.12 5.62 -6.12 5.62 -8 5 C-7.01 3.68 -6.02 2.36 -5 1 Z " fill="#0E1614" transform="translate(268,481)"/>
<path d="M0 0 C3.37 1.39 4.99 2.98 7 6 C4 6 4 6 1.81 4.12 C0 2 0 2 0 0 Z " fill="#1B211B" transform="translate(425,395)"/>
<path d="M0 0 C0 3.11 -0.54 4.35 -2 7 C-3.32 6.67 -4.64 6.34 -6 6 C-4.02 4.02 -2.04 2.04 0 0 Z " fill="#C3DD71" transform="translate(233,192)"/>
<path d="M0 0 C3.37 1.39 4.99 2.98 7 6 C4.62 5.81 4.62 5.81 2 5 C0.69 2.44 0.69 2.44 0 0 Z " fill="#BDD16A" transform="translate(538,627)"/>
<path d="M0 0 C0.33 0 0.66 0 1 0 C1 2.97 1 5.94 1 9 C0.01 9 -0.98 9 -2 9 C-1.34 6.03 -0.68 3.06 0 0 Z " fill="#CCE563" transform="translate(609,568)"/>
<path d="M0 0 C2.44 0.81 2.44 0.81 5 2 C5.33 2.99 5.66 3.98 6 5 C3 5 3 5 1.31 3.62 C0 2 0 2 0 0 Z " fill="#1A211A" transform="translate(395,483)"/>
<path d="M0 0 C2.31 0.19 2.31 0.19 5 1 C6.81 3.56 6.81 3.56 8 6 C4.63 4.56 2.49 2.67 0 0 Z " fill="#CEE772" transform="translate(639,222)"/>
</svg>
