<?xml version="1.0" encoding="UTF-8"?>
<!-- Generator: visioncortex VTracer 0.6.4 -->
<svg version="1.1" xmlns="http://www.w3.org/2000/svg" width="1024" height="1024">
<path d="M0 0 C0.33 0.66 0.66 1.32 1 2 C2.07 1.83 3.14 1.65 4.25 1.47 C9.85 0.77 15.38 1.13 21 1.44 C22.59 1.52 22.59 1.52 24.21 1.6 C26.81 1.72 29.41 1.86 32 2 C32.33 1.34 32.66 0.68 33 0 C33 0.66 33 1.32 33 2 C35.31 2 37.62 2 40 2 C40.33 1.34 40.66 0.68 41 0 C41 0.66 41 1.32 41 2 C41.55 1.99 42.11 1.99 42.68 1.98 C48.52 1.91 54.36 1.87 60.2 1.84 C62.37 1.82 64.54 1.8 66.71 1.77 C79.52 1.62 91.52 1.93 104 5 C104.33 4.34 104.66 3.68 105 3 C105 3.99 105 4.98 105 6 C105.93 6.1 106.86 6.21 107.81 6.31 C112.96 7.05 118.11 8.23 123 10 C123.33 10.66 123.66 11.32 124 12 C125.99 12.71 127.99 13.37 130 14 C161.06 27.21 184.91 54.37 198 85 C209.85 114.91 209.36 146.34 209 178 C206.28 178.91 204.72 179.12 201.92 179.12 C200.68 179.12 200.68 179.12 199.41 179.12 C198.5 179.12 197.6 179.12 196.66 179.11 C195.23 179.11 195.23 179.11 193.77 179.11 C190.6 179.11 187.43 179.11 184.27 179.1 C182.08 179.1 179.88 179.09 177.69 179.09 C171.92 179.09 166.14 179.08 160.36 179.07 C154.47 179.06 148.58 179.05 142.69 179.05 C131.13 179.04 119.56 179.02 108 179 C107.67 178.01 107.34 177.02 107 176 C106.34 176 105.68 176 105 176 C105.16 175.49 105.32 174.99 105.49 174.46 C106.17 171.18 106.2 167.94 106.24 164.59 C106.25 163.87 106.25 163.15 106.26 162.41 C106.28 160.88 106.29 159.36 106.3 157.83 C106.31 156.29 106.33 154.75 106.36 153.21 C106.64 138.48 104.25 125.16 94 113.78 C92.03 111.79 92.03 111.79 89 111 C88.48 110.4 87.97 109.8 87.44 109.19 C80.93 103.34 71.95 101.82 63.48 102.06 C61 102 61 102 57.83 101.5 C53.95 100.99 50.18 100.86 46.29 100.88 C45.17 100.88 45.17 100.88 44.03 100.88 C41.55 100.88 39.07 100.88 36.59 100.89 C34.81 100.89 33.02 100.89 31.24 100.89 C26.41 100.89 21.57 100.89 16.74 100.9 C11.69 100.9 6.63 100.91 1.58 100.91 C-7.99 100.91 -17.55 100.92 -27.12 100.93 C-38.01 100.94 -48.9 100.94 -59.8 100.95 C-82.2 100.96 -104.6 100.98 -127 101 C-127.33 101.66 -127.66 102.32 -128 103 C-128.93 103.06 -129.86 103.12 -130.81 103.19 C-138.73 104.12 -147.09 110.01 -152.41 115.8 C-161.64 128.56 -164.81 142.8 -162.5 158.37 C-160.05 170.2 -155.91 177.76 -147.01 185.97 C-145 188 -145 188 -145 190 C-144.2 190.32 -144.2 190.32 -143.38 190.64 C-140.09 192.52 -137.63 195.12 -134.99 197.79 C-134.4 198.39 -133.81 198.98 -133.2 199.59 C-131.25 201.54 -129.31 203.51 -127.37 205.47 C-126.02 206.83 -124.66 208.19 -123.31 209.55 C-119.74 213.13 -116.18 216.71 -112.62 220.3 C-106.92 226.04 -101.22 231.77 -95.51 237.51 C-93.52 239.51 -91.53 241.52 -89.54 243.52 C-88.32 244.75 -87.1 245.98 -85.88 247.21 C-85.32 247.77 -84.77 248.33 -84.2 248.9 C-80.16 253.26 -80.16 253.26 -74.8 255.25 C-73.5 255.25 -73.5 255.25 -72.18 255.25 C-71.18 255.25 -70.18 255.25 -69.15 255.26 C-68.05 255.25 -66.95 255.25 -65.82 255.24 C-64.65 255.24 -63.49 255.24 -62.29 255.25 C-59.04 255.25 -55.8 255.24 -52.56 255.23 C-49.06 255.22 -45.57 255.23 -42.07 255.23 C-36.02 255.23 -29.96 255.22 -23.9 255.21 C-15.14 255.2 -6.39 255.19 2.37 255.19 C16.58 255.18 30.78 255.17 44.99 255.15 C58.79 255.13 72.6 255.12 86.4 255.11 C87.68 255.11 87.68 255.11 88.98 255.11 C93.24 255.11 97.51 255.1 101.78 255.1 C137.18 255.08 172.59 255.04 208 255 C209.07 258.87 209.13 262.54 209.11 266.53 C209.11 267.29 209.11 268.05 209.11 268.84 C209.11 271.39 209.11 273.95 209.1 276.5 C209.1 278.33 209.09 280.17 209.09 282 C209.09 285.95 209.08 289.9 209.08 293.84 C209.06 300.1 209.06 306.36 209.05 312.62 C209.04 327.06 209.02 341.5 208.99 355.94 C208.97 369.14 208.96 382.33 208.95 395.53 C208.94 401.73 208.93 407.94 208.92 414.14 C208.91 418.03 208.91 421.92 208.91 425.81 C208.9 427.6 208.9 429.38 208.89 431.16 C208.86 441.07 209.04 450.91 209.74 460.8 C209.99 464.73 210.01 468.18 209 472 C208.83 472.73 208.65 473.47 208.47 474.22 C208.2 475.36 208.2 475.36 207.93 476.51 C204.2 493.56 201.76 514.31 211.24 529.94 C224.85 550.44 244.77 567.22 262.78 583.72 C270.19 590.52 277.43 597.49 284.67 604.47 C295.9 615.3 307.22 626.03 318.67 636.64 C319.24 637.17 319.81 637.7 320.4 638.25 C321.99 639.72 323.57 641.18 325.17 642.65 C326.06 643.47 326.95 644.29 327.86 645.14 C329.86 647.03 329.86 647.03 332 648 C332 648.66 332 649.32 332 650 C332.66 650 333.32 650 334 650 C335.35 651.65 336.69 653.32 338 655 C338.66 655.33 339.32 655.66 340 656 C340 656.66 340 657.32 340 658 C340.66 658 341.32 658 342 658 C343.17 659.1 344.32 660.21 345.43 661.36 C346.63 662.61 347.86 663.84 349.11 665.04 C349.83 665.75 350.56 666.46 351.31 667.19 C352.01 667.86 352.71 668.54 353.43 669.23 C355 671 355 671 355 673 C356.32 673.66 357.64 674.32 359 675 C359 675.33 359 675.66 359 676 C353.39 676.33 347.78 676.66 342 677 C342 677.33 342 677.66 342 678 C337.71 678 333.42 678 329 678 C329 677.34 329 676.68 329 676 C328.44 676 327.88 676.01 327.3 676.01 C313.61 676.1 299.92 676.17 286.23 676.21 C279.61 676.23 272.99 676.26 266.37 676.3 C259.99 676.35 253.6 676.37 247.21 676.38 C244.78 676.39 242.34 676.4 239.9 676.42 C236.49 676.45 233.08 676.46 229.67 676.45 C228.65 676.47 227.64 676.48 226.6 676.5 C222.19 676.47 219.69 676.41 215.83 674.1 C214 672 214 672 214 670 C213.01 669.67 212.02 669.34 211 669 C209.31 667.56 209.31 667.56 208 666 C208 665.34 208 664.68 208 664 C207.34 664 206.68 664 206 664 C206 663.34 206 662.68 206 662 C205.34 662 204.68 662 204 662 C202.65 660.35 201.31 658.68 200 657 C199.34 656.67 198.68 656.34 198 656 C198 655.34 198 654.68 198 654 C197.38 653.75 196.76 653.5 196.12 653.25 C193.6 651.76 193.28 650.56 192 648 C191.42 647.72 190.84 647.44 190.24 647.16 C187.38 645.68 185.51 643.77 183.23 641.5 C182.34 640.61 181.46 639.73 180.54 638.81 C179.16 637.42 179.16 637.42 177.75 636 C176.81 635.07 175.88 634.14 174.91 633.19 C174.03 632.3 173.15 631.41 172.23 630.5 C171.42 629.69 170.61 628.87 169.77 628.03 C168 626 168 626 168 624 C167.34 624 166.68 624 166 624 C166 623.34 166 622.68 166 622 C165.38 621.75 164.76 621.5 164.12 621.25 C161.6 619.76 161.28 618.56 160 616 C158.68 615.3 157.35 614.63 156 614 C153.75 612 153.75 612 152 610 C152 609.34 152 608.68 152 608 C151.42 607.75 150.84 607.49 150.24 607.23 C147.75 605.86 146.1 604.33 144.11 602.3 C143.4 601.59 142.69 600.87 141.96 600.14 C140.87 599.02 140.87 599.02 139.75 597.88 C139 597.12 138.26 596.37 137.49 595.59 C135.66 593.73 133.83 591.87 132 590 C131.52 590.41 131.05 590.82 130.56 591.24 C129.93 591.78 129.31 592.32 128.66 592.88 C128.04 593.41 127.42 593.95 126.78 594.5 C125.37 595.69 123.91 596.82 122.44 597.94 C120.38 599.68 118.83 601.31 117.12 603.38 C114.55 606.48 111.75 608.98 108.65 611.54 C106.76 613.14 106.76 613.14 104.56 615.94 C102.57 618.32 100.83 620.08 98.49 622.04 C93.27 626.56 88.44 631.45 83.59 636.35 C82.6 637.34 81.62 638.33 80.64 639.31 C77.55 642.41 74.46 645.52 71.38 648.62 C67.79 652.24 64.2 655.85 60.61 659.45 C59.18 660.88 57.76 662.32 56.34 663.75 C43.56 676.58 43.56 676.58 37.12 676.81 C36.16 676.86 35.19 676.91 34.2 676.96 C33.11 676.98 33.11 676.98 32 677 C32 677.33 32 677.66 32 678 C27.05 678 22.1 678 17 678 C17 677.67 17 677.34 17 677 C-35.14 677 -87.28 677 -141 677 C-141 676.34 -141 675.68 -141 675 C-142.14 675.01 -143.29 675.02 -144.46 675.04 C-145.96 675.04 -147.45 675.05 -148.94 675.06 C-149.69 675.07 -150.45 675.08 -151.22 675.09 C-153.15 675.1 -155.08 675.05 -157 675 C-157.33 674.67 -157.66 674.34 -158 674 C-159.57 673.66 -161.14 673.36 -162.72 673.09 C-217.11 663.27 -266.74 634.42 -299.84 589.57 C-300.92 588.11 -302.03 586.66 -303.13 585.21 C-317.47 566.15 -337 535.44 -337 511 C-337.66 510.67 -338.32 510.34 -339 510 C-339.6 505.92 -339.94 501.88 -340.21 497.77 C-340.29 496.69 -340.36 495.61 -340.44 494.5 C-340.53 492.97 -340.53 492.97 -340.62 491.41 C-340.75 490.61 -340.87 489.82 -341 489 C-341.66 488.67 -342.32 488.34 -343 488 C-343.69 468.6 -344.23 449.22 -343.69 429.81 C-343.67 429.09 -343.65 428.36 -343.64 427.61 C-343.58 425.56 -343.52 423.51 -343.45 421.46 C-343.41 420.3 -343.37 419.15 -343.33 417.96 C-343.01 415.05 -342.36 413.53 -341 411 C-340.54 409.1 -340.13 407.18 -339.77 405.26 C-339.55 404.12 -339.33 402.98 -339.1 401.81 C-338.86 400.59 -338.62 399.38 -338.38 398.12 C-335.88 385.86 -332.34 374.39 -327.64 362.8 C-326.89 361 -326.89 361 -327 359 C-326.34 359 -325.68 359 -325 359 C-324.77 358.2 -324.55 357.4 -324.32 356.57 C-322.64 352.03 -320.37 348.04 -317.94 343.88 C-317.21 342.62 -317.21 342.62 -316.47 341.34 C-312.9 335.28 -309.01 329.7 -304.58 324.25 C-302.71 322.05 -302.71 322.05 -303 319 C-302.01 318.67 -301.02 318.34 -300 318 C-298.42 316.48 -298.42 316.48 -296.88 314.56 C-289.18 305.44 -281 296.86 -272.54 288.45 C-271.47 287.37 -270.39 286.3 -269.31 285.22 C-266.51 282.42 -263.71 279.63 -260.9 276.83 C-258.04 273.98 -255.19 271.13 -252.33 268.28 C-247.32 263.28 -242.3 258.27 -237.28 253.27 C-236.53 252.52 -235.78 251.77 -235 251 C-233.89 249.92 -233.89 249.92 -232.76 248.83 C-230.83 246.82 -230.14 245.78 -230 243 C-230.88 241.26 -230.88 241.26 -232.38 239.62 C-235.47 235.77 -238.2 231.77 -240.88 227.62 C-241.28 227.01 -241.69 226.39 -242.1 225.75 C-245 221.24 -245 221.24 -245 219 C-245.66 218.67 -246.32 218.34 -247 218 C-248.12 215.49 -249.15 213 -250.12 210.44 C-250.4 209.73 -250.68 209.02 -250.96 208.28 C-251.65 206.52 -252.33 204.76 -253 203 C-253.66 203.33 -254.32 203.66 -255 204 C-255.03 203.44 -255.05 202.88 -255.08 202.3 C-255.55 195.64 -257.12 189.58 -259.06 183.2 C-260.71 177.59 -261.1 172.81 -261 167 C-261.66 166.67 -262.32 166.34 -263 166 C-263.81 120.15 -257.15 79.03 -224.36 44.4 C-215.98 35.78 -207.06 28.54 -197 22 C-196.08 21.39 -195.16 20.79 -194.21 20.16 C-181.56 12.29 -164.13 4 -149 4 C-148.67 3.34 -148.34 2.68 -148 2 C-121.12 1.11 -94.26 0.84 -67.37 0.87 C-62.05 0.88 -56.74 0.87 -51.42 0.87 C-47.25 0.86 -43.07 0.86 -38.9 0.87 C-36.94 0.87 -34.98 0.87 -33.02 0.86 C-21.97 0.85 -11.02 1.07 0 2 C0 1.34 0 0.68 0 0 Z M-160 312 C-160 312.66 -160 313.32 -160 314 C-160.99 314.33 -161.98 314.66 -163 315 C-164.58 316.55 -164.58 316.55 -166.12 318.49 C-170.19 323.29 -174.58 327.7 -179.04 332.14 C-180.3 333.4 -180.3 333.4 -181.6 334.69 C-184.27 337.36 -186.95 340.02 -189.62 342.69 C-191.43 344.49 -193.23 346.29 -195.04 348.09 C-198.35 351.39 -201.65 354.68 -204.96 357.98 C-220.1 373.06 -233.92 389.63 -239.43 410.8 C-240 412.99 -240.72 415.06 -241.5 417.19 C-252.08 448.64 -248.42 485.12 -234.29 514.78 C-223.42 536.48 -203.09 558.94 -179.78 567.13 C-178.86 567.42 -177.94 567.71 -177 568 C-175.8 568.6 -174.61 569.22 -173.44 569.88 C-160.49 576.56 -145.13 578.81 -130.74 579.53 C-129.93 579.57 -129.11 579.61 -128.28 579.66 C-109.81 580.53 -91.31 580.57 -72.83 580.62 C-65.93 580.64 -59.05 580.7 -52.16 580.84 C-45.43 580.98 -38.71 581.02 -31.98 581 C-29.44 581.01 -26.9 581.05 -24.36 581.12 C-11.82 581.46 -2.28 581.4 7.27 572.52 C13.79 566.58 13.79 566.58 17 559 C17.58 558.75 18.15 558.5 18.75 558.25 C21.33 556.82 23.06 555.22 25 553 C25 552.34 25 551.68 25 551 C25.58 550.94 26.15 550.88 26.75 550.81 C29.92 549.67 31.13 547.74 33 545 C33 544.34 33 543.68 33 543 C33.58 542.94 34.15 542.88 34.75 542.81 C37.92 541.67 39.13 539.74 41 537 C41 536.34 41 535.68 41 535 C41.58 534.92 42.15 534.84 42.75 534.75 C45.68 533.77 47.05 532.36 49 530 C49 529.01 49 528.02 49 527 C49.58 526.94 50.15 526.88 50.75 526.81 C53.87 525.68 55.03 523.6 57 521 C56.21 520.3 55.43 519.6 54.62 518.88 C49.24 514.03 44.12 509.21 39.46 503.65 C37.53 501.47 35.31 499.76 33 498 C32.67 497.34 32.34 496.68 32 496 C31.34 496 30.68 496 30 496 C30 495.34 30 494.68 30 494 C28.41 492.43 28.41 492.43 26.38 490.81 C22.91 487.89 20.02 484.84 17.23 481.29 C16.82 480.86 16.42 480.44 16 480 C15.34 480 14.68 480 14 480 C14 479.34 14 478.68 14 478 C12.35 476.65 10.68 475.31 9 474 C8.67 473.34 8.34 472.68 8 472 C7.34 472 6.68 472 6 472 C6 471.34 6 470.68 6 470 C4.36 468.64 2.68 467.31 1 466 C-0.68 464.35 -2.34 462.68 -4 461 C-5.47 459.53 -6.93 458.06 -8.4 456.6 C-100.6 364.4 -100.6 364.4 -102.96 362.04 C-104.58 360.42 -106.2 358.8 -107.82 357.18 C-110.11 354.89 -112.39 352.6 -114.67 350.3 C-119.08 345.86 -123.49 341.42 -127.91 336.99 C-130.57 334.31 -133.24 331.63 -135.9 328.95 C-138.48 326.35 -141.07 323.75 -143.66 321.15 C-144.64 320.16 -145.63 319.17 -146.61 318.18 C-147.97 316.8 -149.35 315.43 -150.72 314.05 C-151.5 313.27 -152.28 312.48 -153.08 311.67 C-156.11 309.03 -156.64 309.76 -160 312 Z M1 332 C6.11 337.96 6.11 337.96 11.47 343.6 C12.31 344.44 13.15 345.29 14.02 346.15 C14.92 347.05 15.82 347.95 16.75 348.88 C17.73 349.86 18.7 350.84 19.68 351.81 C22.3 354.44 24.94 357.07 27.57 359.7 C30.32 362.46 33.08 365.21 35.83 367.97 C40.45 372.59 45.07 377.21 49.7 381.83 C55.04 387.17 60.39 392.52 65.73 397.87 C70.33 402.46 74.92 407.06 79.52 411.65 C82.26 414.39 85 417.14 87.74 419.88 C90.31 422.45 92.89 425.02 95.46 427.59 C96.86 428.99 98.26 430.39 99.66 431.8 C100.49 432.62 101.31 433.44 102.16 434.29 C102.88 435.01 103.6 435.73 104.35 436.47 C105.75 438.11 105.75 438.11 107 438 C107 403.02 107 368.04 107 332 C72.02 332 37.04 332 1 332 Z " fill="#BDE48B" transform="translate(519,153)"/>
<path d="M0 0 C15.51 0 31.02 0 47 0 C47 0.33 47 0.66 47 1 C31.49 1 15.98 1 0 1 C0 0.67 0 0.34 0 0 Z " fill="#C0E68D" transform="translate(568,486)"/>
<path d="M0 0 C2.97 0 5.94 0 9 0 C9 6.6 9 13.2 9 20 C8.67 20 8.34 20 8 20 C8 13.73 8 7.46 8 1 C5.36 1 2.72 1 0 1 C0 0.67 0 0.34 0 0 Z " fill="#C1E68E" transform="translate(616,486)"/>
<path d="M0 0 C7.59 0 15.18 0 23 0 C23 0.33 23 0.66 23 1 C15.41 1 7.82 1 0 1 C0 0.67 0 0.34 0 0 Z " fill="#B7DC85" transform="translate(776,830)"/>
<path d="M0 0 C7.59 0 15.18 0 23 0 C23 0.33 23 0.66 23 1 C15.41 1 7.82 1 0 1 C0 0.67 0 0.34 0 0 Z " fill="#C1E78E" transform="translate(544,486)"/>
<path d="M0 0 C4.95 0 9.9 0 15 0 C15 0.33 15 0.66 15 1 C10.05 1 5.1 1 0 1 C0 0.67 0 0.34 0 0 Z " fill="#B8DD86" transform="translate(496,830)"/>
<path d="M0 0 C4.95 0 9.9 0 15 0 C15 0.33 15 0.66 15 1 C10.05 1 5.1 1 0 1 C0 0.67 0 0.34 0 0 Z " fill="#B7DD85" transform="translate(400,830)"/>
<path d="M0 0 C4.95 0 9.9 0 15 0 C15 0.33 15 0.66 15 1 C10.05 1 5.1 1 0 1 C0 0.67 0 0.34 0 0 Z " fill="#C1E88E" transform="translate(528,486)"/>
<path d="M0 0 C0.33 0 0.66 0 1 0 C1 2.97 1 5.94 1 9 C0.67 9 0.34 9 0 9 C0 6.03 0 3.06 0 0 Z " fill="#C1E68E" transform="translate(624,511)"/>
<path d="M0 0 C0.33 0 0.66 0 1 0 C1 2.97 1 5.94 1 9 C0.67 9 0.34 9 0 9 C0 6.03 0 3.06 0 0 Z " fill="#BFE48D" transform="translate(624,311)"/>
<path d="M0 0 C2.31 0 4.62 0 7 0 C7 0.33 7 0.66 7 1 C4.69 1 2.38 1 0 1 C0 0.67 0 0.34 0 0 Z " fill="#9CBD74" transform="translate(867,830)"/>
<path d="M0 0 C2.31 0 4.62 0 7 0 C7 0.33 7 0.66 7 1 C4.69 1 2.38 1 0 1 C0 0.67 0 0.34 0 0 Z " fill="#B3D883" transform="translate(838,830)"/>
<path d="M0 0 C2.31 0 4.62 0 7 0 C7 0.33 7 0.66 7 1 C4.69 1 2.38 1 0 1 C0 0.67 0 0.34 0 0 Z " fill="#B5DA84" transform="translate(824,830)"/>
<path d="M0 0 C2.31 0 4.62 0 7 0 C7 0.33 7 0.66 7 1 C4.69 1 2.38 1 0 1 C0 0.67 0 0.34 0 0 Z " fill="#B6DC85" transform="translate(816,830)"/>
<path d="M0 0 C2.31 0 4.62 0 7 0 C7 0.33 7 0.66 7 1 C4.69 1 2.38 1 0 1 C0 0.67 0 0.34 0 0 Z " fill="#B6DC85" transform="translate(808,830)"/>
<path d="M0 0 C2.31 0 4.62 0 7 0 C7 0.33 7 0.66 7 1 C4.69 1 2.38 1 0 1 C0 0.67 0 0.34 0 0 Z " fill="#B8DE86" transform="translate(768,830)"/>
<path d="M0 0 C2.31 0 4.62 0 7 0 C7 0.33 7 0.66 7 1 C4.69 1 2.38 1 0 1 C0 0.67 0 0.34 0 0 Z " fill="#B6DB85" transform="translate(760,830)"/>
<path d="M0 0 C2.31 0 4.62 0 7 0 C7 0.33 7 0.66 7 1 C4.69 1 2.38 1 0 1 C0 0.67 0 0.34 0 0 Z " fill="#B7DC85" transform="translate(752,830)"/>
<path d="M0 0 C2.31 0 4.62 0 7 0 C7 0.33 7 0.66 7 1 C4.69 1 2.38 1 0 1 C0 0.67 0 0.34 0 0 Z " fill="#B7DD86" transform="translate(528,830)"/>
<path d="M0 0 C2.31 0 4.62 0 7 0 C7 0.33 7 0.66 7 1 C4.69 1 2.38 1 0 1 C0 0.67 0 0.34 0 0 Z " fill="#B8DD85" transform="translate(512,830)"/>
<path d="M0 0 C2.31 0 4.62 0 7 0 C7 0.33 7 0.66 7 1 C4.69 1 2.38 1 0 1 C0 0.67 0 0.34 0 0 Z " fill="#B8DE87" transform="translate(478,830)"/>
<path d="M0 0 C2.31 0 4.62 0 7 0 C7 0.33 7 0.66 7 1 C4.69 1 2.38 1 0 1 C0 0.67 0 0.34 0 0 Z " fill="#B7DD86" transform="translate(464,830)"/>
<path d="M0 0 C2.31 0 4.62 0 7 0 C7 0.33 7 0.66 7 1 C4.69 1 2.38 1 0 1 C0 0.67 0 0.34 0 0 Z " fill="#B8DE86" transform="translate(448,830)"/>
<path d="M0 0 C2.31 0 4.62 0 7 0 C7 0.33 7 0.66 7 1 C4.69 1 2.38 1 0 1 C0 0.67 0 0.34 0 0 Z " fill="#B8DD86" transform="translate(422,830)"/>
<path d="M0 0 C2.31 0 4.62 0 7 0 C7 0.33 7 0.66 7 1 C4.69 1 2.38 1 0 1 C0 0.67 0 0.34 0 0 Z " fill="#B7DC85" transform="translate(392,830)"/>
<path d="M0 0 C0.33 0 0.66 0 1 0 C1 2.31 1 4.62 1 7 C0.67 7 0.34 7 0 7 C0 4.69 0 2.38 0 0 Z " fill="#C1E78E" transform="translate(624,553)"/>
<path d="M0 0 C0.33 0 0.66 0 1 0 C1 2.31 1 4.62 1 7 C0.67 7 0.34 7 0 7 C0 4.69 0 2.38 0 0 Z " fill="#C1E68E" transform="translate(624,535)"/>
<path d="M0 0 C1.98 0 3.96 0 6 0 C6 0.33 6 0.66 6 1 C4.02 1 2.04 1 0 1 C0 0.67 0 0.34 0 0 Z " fill="#B5DA84" transform="translate(744,830)"/>
<path d="M0 0 C1.98 0 3.96 0 6 0 C6 0.33 6 0.66 6 1 C4.02 1 2.04 1 0 1 C0 0.67 0 0.34 0 0 Z " fill="#B8DD86" transform="translate(441,830)"/>
<path d="M0 0 C1.65 0 3.3 0 5 0 C5 0.33 5 0.66 5 1 C3.35 1 1.7 1 0 1 C0 0.67 0 0.34 0 0 Z " fill="#B4D984" transform="translate(832,830)"/>
<path d="M0 0 C1.65 0 3.3 0 5 0 C5 0.33 5 0.66 5 1 C3.35 1 1.7 1 0 1 C0 0.67 0 0.34 0 0 Z " fill="#B6DC85" transform="translate(800,830)"/>
<path d="M0 0 C1.65 0 3.3 0 5 0 C5 0.33 5 0.66 5 1 C3.35 1 1.7 1 0 1 C0 0.67 0 0.34 0 0 Z " fill="#B7DD86" transform="translate(520,830)"/>
<path d="M0 0 C1.65 0 3.3 0 5 0 C5 0.33 5 0.66 5 1 C3.35 1 1.7 1 0 1 C0 0.67 0 0.34 0 0 Z " fill="#B9DD87" transform="translate(488,830)"/>
<path d="M0 0 C1.65 0 3.3 0 5 0 C5 0.33 5 0.66 5 1 C3.35 1 1.7 1 0 1 C0 0.67 0 0.34 0 0 Z " fill="#B8DE88" transform="translate(472,830)"/>
<path d="M0 0 C1.65 0 3.3 0 5 0 C5 0.33 5 0.66 5 1 C3.35 1 1.7 1 0 1 C0 0.67 0 0.34 0 0 Z " fill="#B8DD85" transform="translate(432,830)"/>
<path d="M0 0 C1.65 0 3.3 0 5 0 C5 0.33 5 0.66 5 1 C3.35 1 1.7 1 0 1 C0 0.67 0 0.34 0 0 Z " fill="#B7DC86" transform="translate(416,830)"/>
<path d="M0 0 C0.33 0 0.66 0 1 0 C1 1.65 1 3.3 1 5 C0.67 5 0.34 5 0 5 C0 3.35 0 1.7 0 0 Z " fill="#C2E78F" transform="translate(624,561)"/>
<path d="M0 0 C0.33 0 0.66 0 1 0 C1 1.65 1 3.3 1 5 C0.67 5 0.34 5 0 5 C0 3.35 0 1.7 0 0 Z " fill="#C1E68D" transform="translate(624,529)"/>
<path d="M0 0 C0.33 0 0.66 0 1 0 C1 1.65 1 3.3 1 5 C0.67 5 0.34 5 0 5 C0 3.35 0 1.7 0 0 Z " fill="#C0E58E" transform="translate(624,299)"/>
<path d="M0 0 C1.65 0 3.3 0 5 0 C5 0.33 5 0.66 5 1 C3.35 1 1.7 1 0 1 C0 0.67 0 0.34 0 0 Z " fill="#B9DE8A" transform="translate(410,152)"/>
<path d="M0 0 C4 1 4 1 4 1 Z " fill="#B0D580" transform="translate(738,830)"/>
<path d="M0 0 C1 4 1 4 1 4 Z " fill="#BADF8B" transform="translate(256,272)"/>
<path d="M0 0 C4 1 4 1 4 1 Z " fill="#C0E490" transform="translate(584,255)"/>
<path d="M0 0 C4 1 4 1 4 1 Z " fill="#B9DD89" transform="translate(594,153)"/>
<path d="M0 0 C3 1 3 1 3 1 Z " fill="#BADE87" transform="translate(458,830)"/>
<path d="M0 0 C3 1 3 1 3 1 Z " fill="#B6DC85" transform="translate(386,830)"/>
<path d="M0 0 C3 1 3 1 3 1 Z " fill="#B5DB84" transform="translate(380,830)"/>
<path d="" fill="#B9DE8A" transform="translate(0,0)"/>
<path d="" fill="#BFE48C" transform="translate(0,0)"/>
<path d="" fill="#C2E68E" transform="translate(0,0)"/>
<path d="" fill="#C1E68E" transform="translate(0,0)"/>
<path d="" fill="#C1E78E" transform="translate(0,0)"/>
<path d="M0 0 C0.33 0.66 0.66 1.32 1 2 C0.34 1.67 -0.32 1.34 -1 1 C-0.67 0.67 -0.34 0.34 0 0 Z " fill="#BBE18D" transform="translate(273,374)"/>
<path d="" fill="#C0E68F" transform="translate(0,0)"/>
<path d="M0 0 C3 1 3 1 3 1 Z " fill="#C0E38F" transform="translate(563,254)"/>
<path d="M0 0 C3 1 3 1 3 1 Z " fill="#B5D988" transform="translate(329,168)"/>
<path d="M0 0 C3 1 3 1 3 1 Z " fill="#BADE89" transform="translate(581,153)"/>
<path d="M0 0 C2 1 2 1 2 1 Z " fill="#A3C679" transform="translate(864,830)"/>
<path d="M0 0 C2 1 2 1 2 1 Z " fill="#B3D884" transform="translate(555,830)"/>
<path d="M0 0 C2 1 2 1 2 1 Z " fill="#B5DA85" transform="translate(552,830)"/>
<path d="" fill="#B5D984" transform="translate(0,0)"/>
<path d="M0 0 C2 1 2 1 2 1 Z " fill="#B4D783" transform="translate(321,819)"/>
<path d="M0 0 C2 1 2 1 2 1 Z " fill="#B7DB87" transform="translate(312,815)"/>
<path d="M0 0 C2 1 2 1 2 1 Z " fill="#C1E78F" transform="translate(514,730)"/>
<path d="" fill="#BCE18D" transform="translate(0,0)"/>
<path d="" fill="#B8DD89" transform="translate(0,0)"/>
<path d="" fill="#B8DE8A" transform="translate(0,0)"/>
<path d="" fill="#BEE38D" transform="translate(0,0)"/>
<path d="" fill="#C2E88F" transform="translate(0,0)"/>
<path d="" fill="#C2E78E" transform="translate(0,0)"/>
<path d="" fill="#C1E88E" transform="translate(0,0)"/>
<path d="M0 0 C2 1 2 1 2 1 Z " fill="#BDE18B" transform="translate(294,535)"/>
<path d="" fill="#B8DD8A" transform="translate(0,0)"/>
<path d="M0 0 C2 1 2 1 2 1 Z " fill="#B8DE8A" transform="translate(208,481)"/>
<path d="" fill="#BBE28C" transform="translate(0,0)"/>
<path d="M0 0 C2 1 2 1 2 1 Z " fill="#B9DE8B" transform="translate(259,342)"/>
<path d="" fill="#C1E68C" transform="translate(0,0)"/>
<path d="" fill="#B9DE88" transform="translate(0,0)"/>
<path d="M0 0 C2 1 2 1 2 1 Z " fill="#C0E490" transform="translate(399,255)"/>
<path d="M0 0 C2 1 2 1 2 1 Z " fill="#C1E490" transform="translate(396,255)"/>
<path d="M0 0 C2 1 2 1 2 1 Z " fill="#C1E490" transform="translate(393,255)"/>
<path d="M0 0 C2 1 2 1 2 1 Z " fill="#BFE38E" transform="translate(547,254)"/>
<path d="M0 0 C2 1 2 1 2 1 Z " fill="#BEE590" transform="translate(539,254)"/>
<path d="M0 0 C2 1 2 1 2 1 Z " fill="#BEE38D" transform="translate(531,254)"/>
<path d="M0 0 C2 1 2 1 2 1 Z " fill="#BFE48F" transform="translate(491,254)"/>
<path d="M0 0 C2 1 2 1 2 1 Z " fill="#BEE48E" transform="translate(475,254)"/>
<path d="" fill="#BBDE89" transform="translate(0,0)"/>
<path d="" fill="#B8DD89" transform="translate(0,0)"/>
<path d="M0 0 C2 1 2 1 2 1 Z " fill="#B5D886" transform="translate(316,176)"/>
<path d="M0 0 C2 1 2 1 2 1 Z " fill="#B8DD88" transform="translate(638,161)"/>
<path d="M0 0 C2 1 2 1 2 1 Z " fill="#B9DE89" transform="translate(388,153)"/>
<path d="" fill="#384A2B" transform="translate(0,0)"/>
<path d="" fill="#AACD7A" transform="translate(0,0)"/>
<path d="" fill="#B2D783" transform="translate(0,0)"/>
<path d="" fill="#B5D782" transform="translate(0,0)"/>
<path d="" fill="#B7DD85" transform="translate(0,0)"/>
<path d="" fill="#B9DE86" transform="translate(0,0)"/>
<path d="" fill="#B8DE85" transform="translate(0,0)"/>
<path d="" fill="#B8DE86" transform="translate(0,0)"/>
<path d="" fill="#B8DE85" transform="translate(0,0)"/>
<path d="" fill="#B8DD86" transform="translate(0,0)"/>
<path d="" fill="#B7DA84" transform="translate(0,0)"/>
<path d="" fill="#B5DC85" transform="translate(0,0)"/>
<path d="" fill="#B6DA85" transform="translate(0,0)"/>
<path d="" fill="#B5D785" transform="translate(0,0)"/>
<path d="" fill="#97B672" transform="translate(0,0)"/>
<path d="" fill="#B9DC85" transform="translate(0,0)"/>
<path d="" fill="#B8DD87" transform="translate(0,0)"/>
<path d="" fill="#B5DA85" transform="translate(0,0)"/>
<path d="" fill="#B7DB86" transform="translate(0,0)"/>
<path d="" fill="#BAE088" transform="translate(0,0)"/>
<path d="" fill="#B6DB89" transform="translate(0,0)"/>
<path d="" fill="#B7D987" transform="translate(0,0)"/>
<path d="" fill="#B6DA86" transform="translate(0,0)"/>
<path d="" fill="#B5DB87" transform="translate(0,0)"/>
<path d="" fill="#B7DD89" transform="translate(0,0)"/>
<path d="" fill="#BEE48C" transform="translate(0,0)"/>
<path d="" fill="#BFE78D" transform="translate(0,0)"/>
<path d="" fill="#B6DD87" transform="translate(0,0)"/>
<path d="" fill="#B9DE89" transform="translate(0,0)"/>
<path d="" fill="#BFE58C" transform="translate(0,0)"/>
<path d="" fill="#BEE28A" transform="translate(0,0)"/>
<path d="" fill="#B6DD87" transform="translate(0,0)"/>
<path d="" fill="#C1E78E" transform="translate(0,0)"/>
<path d="" fill="#B8E088" transform="translate(0,0)"/>
<path d="" fill="#B7DB87" transform="translate(0,0)"/>
<path d="" fill="#BCE28B" transform="translate(0,0)"/>
<path d="" fill="#BEE48D" transform="translate(0,0)"/>
<path d="" fill="#B6DB88" transform="translate(0,0)"/>
<path d="" fill="#C1E590" transform="translate(0,0)"/>
<path d="" fill="#C0E790" transform="translate(0,0)"/>
<path d="" fill="#B6DC86" transform="translate(0,0)"/>
<path d="" fill="#C2E78E" transform="translate(0,0)"/>
<path d="" fill="#B8DC89" transform="translate(0,0)"/>
<path d="" fill="#B9DF8A" transform="translate(0,0)"/>
<path d="" fill="#BBDF8A" transform="translate(0,0)"/>
<path d="" fill="#C0E68E" transform="translate(0,0)"/>
<path d="" fill="#C0E68E" transform="translate(0,0)"/>
<path d="" fill="#C0E58E" transform="translate(0,0)"/>
<path d="" fill="#BEE58E" transform="translate(0,0)"/>
<path d="" fill="#BFE48F" transform="translate(0,0)"/>
<path d="" fill="#C0E88D" transform="translate(0,0)"/>
<path d="" fill="#C0E48F" transform="translate(0,0)"/>
<path d="" fill="#C2E890" transform="translate(0,0)"/>
<path d="" fill="#C3E88F" transform="translate(0,0)"/>
<path d="" fill="#C3E890" transform="translate(0,0)"/>
<path d="" fill="#C0E48C" transform="translate(0,0)"/>
<path d="" fill="#C0E58D" transform="translate(0,0)"/>
<path d="" fill="#BFE38D" transform="translate(0,0)"/>
<path d="" fill="#BFE68E" transform="translate(0,0)"/>
<path d="" fill="#C2E78E" transform="translate(0,0)"/>
<path d="" fill="#BDE48D" transform="translate(0,0)"/>
<path d="" fill="#C1E68E" transform="translate(0,0)"/>
<path d="" fill="#B9DF89" transform="translate(0,0)"/>
<path d="" fill="#C0E68D" transform="translate(0,0)"/>
<path d="" fill="#BFE48D" transform="translate(0,0)"/>
<path d="" fill="#B5DB89" transform="translate(0,0)"/>
<path d="" fill="#C2E88D" transform="translate(0,0)"/>
<path d="" fill="#BEE48B" transform="translate(0,0)"/>
<path d="" fill="#BEE38D" transform="translate(0,0)"/>
<path d="" fill="#BDE48F" transform="translate(0,0)"/>
<path d="" fill="#BADE8A" transform="translate(0,0)"/>
<path d="" fill="#C0E58D" transform="translate(0,0)"/>
<path d="" fill="#C0E38E" transform="translate(0,0)"/>
<path d="" fill="#C1E78F" transform="translate(0,0)"/>
<path d="" fill="#C0E88E" transform="translate(0,0)"/>
<path d="" fill="#C1E78D" transform="translate(0,0)"/>
<path d="" fill="#C1E78D" transform="translate(0,0)"/>
<path d="" fill="#C1E48D" transform="translate(0,0)"/>
<path d="" fill="#C1E78E" transform="translate(0,0)"/>
<path d="" fill="#C4E790" transform="translate(0,0)"/>
<path d="" fill="#C0E78D" transform="translate(0,0)"/>
<path d="" fill="#C0E68E" transform="translate(0,0)"/>
<path d="" fill="#C2E68E" transform="translate(0,0)"/>
<path d="" fill="#C0E68E" transform="translate(0,0)"/>
<path d="" fill="#B6DD88" transform="translate(0,0)"/>
<path d="" fill="#B8DF88" transform="translate(0,0)"/>
<path d="" fill="#C2E68C" transform="translate(0,0)"/>
<path d="" fill="#C1E78C" transform="translate(0,0)"/>
<path d="" fill="#C3E88D" transform="translate(0,0)"/>
<path d="" fill="#C2E88D" transform="translate(0,0)"/>
<path d="" fill="#BADE8A" transform="translate(0,0)"/>
<path d="" fill="#B8DF8A" transform="translate(0,0)"/>
<path d="" fill="#C0E68F" transform="translate(0,0)"/>
<path d="" fill="#BEE58E" transform="translate(0,0)"/>
<path d="" fill="#BAE08C" transform="translate(0,0)"/>
<path d="" fill="#BCE18D" transform="translate(0,0)"/>
<path d="" fill="#BEE58C" transform="translate(0,0)"/>
<path d="" fill="#BCE18C" transform="translate(0,0)"/>
<path d="" fill="#BAE08B" transform="translate(0,0)"/>
<path d="" fill="#1E2B1D" transform="translate(0,0)"/>
<path d="" fill="#BCE189" transform="translate(0,0)"/>
<path d="" fill="#B9DC87" transform="translate(0,0)"/>
<path d="" fill="#BBDF8B" transform="translate(0,0)"/>
<path d="" fill="#B9DF8B" transform="translate(0,0)"/>
<path d="" fill="#BFE58E" transform="translate(0,0)"/>
<path d="" fill="#C1E58E" transform="translate(0,0)"/>
<path d="" fill="#C0E48E" transform="translate(0,0)"/>
<path d="" fill="#BEE48E" transform="translate(0,0)"/>
<path d="" fill="#C2E690" transform="translate(0,0)"/>
<path d="" fill="#C0E48F" transform="translate(0,0)"/>
<path d="" fill="#C1E38C" transform="translate(0,0)"/>
<path d="" fill="#C0E68E" transform="translate(0,0)"/>
<path d="" fill="#B9DE88" transform="translate(0,0)"/>
<path d="" fill="#C2E68C" transform="translate(0,0)"/>
<path d="" fill="#C1E68F" transform="translate(0,0)"/>
<path d="" fill="#B9DE89" transform="translate(0,0)"/>
<path d="" fill="#C1E290" transform="translate(0,0)"/>
<path d="" fill="#C0E58F" transform="translate(0,0)"/>
<path d="" fill="#C0E48D" transform="translate(0,0)"/>
<path d="" fill="#BFE38D" transform="translate(0,0)"/>
<path d="" fill="#C0E58F" transform="translate(0,0)"/>
<path d="" fill="#C1E390" transform="translate(0,0)"/>
<path d="" fill="#C2E491" transform="translate(0,0)"/>
<path d="" fill="#C0E491" transform="translate(0,0)"/>
<path d="" fill="#BDE48C" transform="translate(0,0)"/>
<path d="" fill="#BFE58D" transform="translate(0,0)"/>
<path d="" fill="#C0E68F" transform="translate(0,0)"/>
<path d="" fill="#C0E48F" transform="translate(0,0)"/>
<path d="" fill="#C0E690" transform="translate(0,0)"/>
<path d="" fill="#C2E491" transform="translate(0,0)"/>
<path d="" fill="#B8DC87" transform="translate(0,0)"/>
<path d="" fill="#B5DA86" transform="translate(0,0)"/>
<path d="" fill="#BADD88" transform="translate(0,0)"/>
<path d="" fill="#B7DA88" transform="translate(0,0)"/>
<path d="" fill="#B4D987" transform="translate(0,0)"/>
<path d="" fill="#B6DB86" transform="translate(0,0)"/>
<path d="" fill="#B3D885" transform="translate(0,0)"/>
<path d="" fill="#B8DB89" transform="translate(0,0)"/>
<path d="" fill="#B9DD88" transform="translate(0,0)"/>
<path d="" fill="#B7DB87" transform="translate(0,0)"/>
<path d="" fill="#B9DD87" transform="translate(0,0)"/>
<path d="" fill="#B9DD89" transform="translate(0,0)"/>
<path d="" fill="#B7DB88" transform="translate(0,0)"/>
<path d="" fill="#B9DC89" transform="translate(0,0)"/>
<path d="" fill="#BBDE88" transform="translate(0,0)"/>
<path d="" fill="#BADE89" transform="translate(0,0)"/>
<path d="" fill="#B9DD88" transform="translate(0,0)"/>
<path d="" fill="#BBDD88" transform="translate(0,0)"/>
<path d="" fill="#BBE08A" transform="translate(0,0)"/>
<path d="" fill="#BDE28A" transform="translate(0,0)"/>
<path d="" fill="#BBDF89" transform="translate(0,0)"/>
<path d="" fill="#BADD8A" transform="translate(0,0)"/>
<path d="" fill="#BBE08A" transform="translate(0,0)"/>
<path d="" fill="#BBE18A" transform="translate(0,0)"/>
<path d="" fill="#B9DC87" transform="translate(0,0)"/>
<path d="" fill="#B9DE88" transform="translate(0,0)"/>
<path d="" fill="#BADF87" transform="translate(0,0)"/>
<path d="" fill="#B9DC88" transform="translate(0,0)"/>
<path d="" fill="#B8DD89" transform="translate(0,0)"/>
<path d="" fill="#BADC88" transform="translate(0,0)"/>
<path d="" fill="#BCDE89" transform="translate(0,0)"/>
</svg>
