<?xml version="1.0" encoding="UTF-8"?>
<svg width="24" height="24" viewBox="0 0 24 24" fill="none" xmlns="http://www.w3.org/2000/svg">
  <path d="M9 11C9 11.5523 8.55228 12 8 12C7.44772 12 7 11.5523 7 11C7 10.4477 7.44772 10 8 10C8.55228 10 9 10.4477 9 11Z" fill="currentColor"/>
  <path d="M16 12C16.5523 12 17 11.5523 17 11C17 10.4477 16.5523 10 16 10C15.4477 10 15 10.4477 15 11C15 11.5523 15.4477 12 16 12Z" fill="currentColor"/>
  <path d="M20.317 4.37C18.787 3.65 17.147 3.115 15.432 2.787C15.2307 3.15961 15.0434 3.54117 14.87 3.929C13.052 3.629 11.211 3.629 9.393 3.929C9.21958 3.54117 9.03234 3.15961 8.831 2.787C7.11502 3.115 5.47429 3.65139 3.944 4.37C0.57 9.453 -0.349 14.406 0.109 19.281C2.01982 20.7314 4.15817 21.8161 6.427 22.493C6.93 21.816 7.379 21.097 7.772 20.34C7.0373 20.0723 6.32411 19.7428 5.641 19.354C5.82082 19.2236 5.99397 19.0859 6.16 18.941C10.26 20.861 14.74 20.861 18.792 18.941C18.959 19.085 19.132 19.223 19.312 19.354C18.6281 19.7436 17.9141 20.0737 17.179 20.342C17.572 21.097 18.019 21.818 18.524 22.493C20.7947 21.8172 22.9346 20.7327 24.846 19.282C25.385 13.627 23.951 8.721 20.317 4.37ZM8.332 16.573C7.098 16.573 6.083 15.422 6.083 14.012C6.083 12.602 7.074 11.437 8.332 11.437C9.59 11.437 10.605 12.602 10.581 14.012C10.557 15.422 9.59 16.573 8.332 16.573ZM15.621 16.573C14.387 16.573 13.372 15.422 13.372 14.012C13.372 12.602 14.363 11.437 15.621 11.437C16.879 11.437 17.894 12.602 17.87 14.012C17.846 15.422 16.879 16.573 15.621 16.573Z" fill="currentColor"/>
</svg> 