<?xml version="1.0" encoding="UTF-8"?>
<svg width="24" height="24" viewBox="0 0 24 24" fill="none" xmlns="http://www.w3.org/2000/svg">
  <path d="M22.2647 2.42C21.9927 2.19793 21.6645 2.05157 21.3157 1.99333C20.9669 1.93509 20.6093 1.96696 20.2775 2.084L2.63472 8.917C2.25972 9.05007 1.93281 9.28669 1.69577 9.60059C1.45873 9.91449 1.32135 10.2907 1.30047 10.6827C1.27959 11.0747 1.37616 11.4646 1.57772 11.8008C1.77929 12.137 2.07674 12.4047 2.43472 12.573L6.43472 14.573C6.68914 14.7009 6.97698 14.7509 7.26036 14.7177C7.54374 14.6845 7.81005 14.5695 8.02472 14.387L14.6947 8.51C14.8547 8.37 15.0547 8.287 15.2647 8.287C15.4747 8.287 15.6747 8.37 15.8347 8.51C15.9947 8.67 16.0847 8.87 16.0847 9.08C16.0847 9.29 15.9947 9.49 15.8347 9.65L9.16472 15.527C8.98273 15.7417 8.86772 16.008 8.83447 16.2913C8.80122 16.5747 8.85124 16.8626 8.97472 17.117L10.9747 21.117C11.1524 21.4614 11.4237 21.7439 11.7563 21.9337C12.0889 22.1235 12.4697 22.2133 12.8547 22.192C13.2397 22.1707 13.6089 22.0393 13.9197 21.8133C14.2304 21.5873 14.4698 21.2762 14.6047 20.917L21.9147 3.417C22.0422 3.09213 22.0861 2.74006 22.0422 2.39396C21.9983 2.04786 21.8682 1.71963 21.6647 1.442L22.2647 2.42ZM22.2647 2.42C22.0613 2.14237 21.7947 1.92222 21.4897 1.778C21.1847 1.63378 20.8509 1.57094 20.5175 1.59478C20.1841 1.61862 19.8623 1.72842 19.5775 1.917L2.63472 8.917L22.2647 2.42Z" stroke="currentColor" stroke-width="2" stroke-linecap="round" stroke-linejoin="round"/>
</svg> 