<?xml version="1.0" encoding="UTF-8"?>
<svg width="24" height="24" viewBox="0 0 24 24" fill="none" xmlns="http://www.w3.org/2000/svg">
  <path d="M22 4.01C21.0424 4.68547 19.9821 5.20485 18.86 5.55C18.2577 4.84725 17.4573 4.35075 16.567 4.13398C15.6767 3.91721 14.7395 3.98815 13.8821 4.33563C13.0247 4.68312 12.2884 5.29179 11.773 6.07924C11.2575 6.86669 10.9877 7.79408 11 8.74V9.74C9.24975 9.78837 7.51974 9.37497 5.96471 8.53925C4.40968 7.70354 3.07766 6.47324 2.09998 4.96C2.09998 4.96 -1.90002 13 8.09998 17C5.97498 18.4798 3.48447 19.2194 1 19.13C10.9 24.13 22.9 19.13 22.9 8.71C22.8994 8.43007 22.8757 8.15073 22.83 7.87C23.8554 6.84227 24.5773 5.5089 23.9 4.01H22Z" stroke="currentColor" stroke-width="2" stroke-linecap="round" stroke-linejoin="round"/>
</svg> 